<?xml version="1.0" encoding="UTF-8" standalone="no"?>
<!DOCTYPE svg PUBLIC "-//W3C//DTD SVG 1.1//EN"
 "http://www.w3.org/Graphics/SVG/1.1/DTD/svg11.dtd">
<!-- Generated by graphviz version 2.40.1 (20161225.0304)
 -->
<!-- Title: %3 Pages: 1 -->
<svg width="893pt" height="551pt"
 viewBox="0.00 0.00 892.66 550.94" xmlns="http://www.w3.org/2000/svg" xmlns:xlink="http://www.w3.org/1999/xlink">
<g id="graph0" class="graph" transform="scale(1 1) rotate(0) translate(4 546.9432)">
<title>%3</title>
<polygon fill="#ffffff" stroke="transparent" points="-4,4 -4,-546.9432 888.6588,-546.9432 888.6588,4 -4,4"/>
<!-- &#45;1 -->
<g id="node1" class="node">
<title>&#45;1</title>
<polygon fill="#d3d3d3" stroke="#000000" points="185.6588,-473.1945 161.6588,-473.1945 161.6588,-455.1945 185.6588,-455.1945 185.6588,-473.1945"/>
<text text-anchor="middle" x="173.6588" y="-461.9945" font-family="Times,serif" font-size="9.00" fill="#000000">&#45;1</text>
</g>
<!-- 2 -->
<g id="node19" class="node">
<title>2</title>
<ellipse fill="#add8e6" stroke="#000000" cx="547.6588" cy="-388.5965" rx="14.7" ry="14.7"/>
<text text-anchor="middle" x="547.6588" y="-386.3965" font-family="Times,serif" font-size="9.00" fill="#000000">2</text>
</g>
<!-- &#45;1&#45;&gt;2 -->
<g id="edge35" class="edge">
<title>&#45;1&#45;&gt;2</title>
<path fill="none" stroke="#00ff00" stroke-width="1.086" stroke-dasharray="1,5" d="M185.6788,-461.7648C238.3629,-451.1156 449.502,-408.4373 522.6,-393.6617"/>
<polygon fill="#00ff00" stroke="#00ff00" stroke-width="1.086" points="523.6177,-397.0269 532.726,-391.6149 522.2308,-390.1656 523.6177,-397.0269"/>
</g>
<!-- 3 -->
<g id="node20" class="node">
<title>3</title>
<ellipse fill="#add8e6" stroke="#000000" cx="83.6588" cy="-14.8492" rx="14.7" ry="14.7"/>
<text text-anchor="middle" x="83.6588" y="-12.6492" font-family="Times,serif" font-size="9.00" fill="#000000">3</text>
</g>
<!-- &#45;1&#45;&gt;3 -->
<g id="edge33" class="edge">
<title>&#45;1&#45;&gt;3</title>
<path fill="none" stroke="#0000ff" stroke-width="1.1334" stroke-dasharray="1,5" d="M165.7568,-455.0331C136.9865,-420.9162 38.1819,-296.8639 12.6588,-173.8234 2.8981,-126.7696 -9.3037,-108.4417 12.6588,-65.6985 22.6216,-46.3088 43.79,-32.6592 60.434,-24.4183"/>
<polygon fill="#0000ff" stroke="#0000ff" stroke-width="1.1334" points="61.981,-27.5591 69.592,-20.1887 59.046,-21.2041 61.981,-27.5591"/>
</g>
<!-- 1228 -->
<g id="node22" class="node">
<title>1228</title>
<ellipse fill="#ffffff" stroke="#000000" cx="173.6588" cy="-312.9985" rx="25" ry="25"/>
<text text-anchor="middle" x="173.6588" y="-310.7985" font-family="Times,serif" font-size="9.00" fill="#000000">1228</text>
</g>
<!-- &#45;1&#45;&gt;1228 -->
<g id="edge47" class="edge">
<title>&#45;1&#45;&gt;1228</title>
<path fill="none" stroke="#00ff00" stroke-width=".1772" d="M173.6588,-455.1893C173.6588,-434.6212 173.6588,-383.2711 173.6588,-348.2537"/>
<polygon fill="#00ff00" stroke="#00ff00" stroke-width=".1772" points="177.1589,-347.9628 173.6588,-337.9628 170.1589,-347.9628 177.1589,-347.9628"/>
</g>
<!-- 371 -->
<g id="node23" class="node">
<title>371</title>
<ellipse fill="#ffffff" stroke="#000000" cx="434.6588" cy="-86.9117" rx="21.4286" ry="21.4286"/>
<text text-anchor="middle" x="434.6588" y="-84.7117" font-family="Times,serif" font-size="9.00" fill="#000000">371</text>
</g>
<!-- &#45;1&#45;&gt;371 -->
<g id="edge1" class="edge">
<title>&#45;1&#45;&gt;371</title>
<path fill="none" stroke="#0000ff" stroke-width=".2874" d="M185.6814,-460.6215C225.8154,-447.8764 352.6588,-400.6614 352.6588,-312.9985 352.6588,-312.9985 352.6588,-312.9985 352.6588,-231.0366 352.6588,-191.4969 351.8628,-178.3521 371.6588,-144.1249 380.7,-128.4926 395.469,-114.7454 408.4354,-104.6467"/>
<polygon fill="#0000ff" stroke="#0000ff" stroke-width=".2874" points="410.6872,-107.3338 416.6176,-98.5542 406.5065,-101.7193 410.6872,-107.3338"/>
</g>
<!-- 447 -->
<g id="node24" class="node">
<title>447</title>
<ellipse fill="#ffffff" stroke="#000000" cx="167.6588" cy="-231.0366" rx="21.4286" ry="21.4286"/>
<text text-anchor="middle" x="167.6588" y="-228.8366" font-family="Times,serif" font-size="9.00" fill="#000000">447</text>
</g>
<!-- &#45;1&#45;&gt;447 -->
<g id="edge27" class="edge">
<title>&#45;1&#45;&gt;447</title>
<path fill="none" stroke="#00ff00" stroke-width=".4157" stroke-dasharray="1,5" d="M169.1581,-454.9861C156.934,-428.7801 124.9894,-351.5955 139.6588,-288.2498 142.0474,-277.935 146.5658,-267.3331 151.2867,-258.1016"/>
<polygon fill="#00ff00" stroke="#00ff00" stroke-width=".4157" points="154.5069,-259.5057 156.1991,-249.0469 148.354,-256.1676 154.5069,-259.5057"/>
</g>
<!-- &#45;2 -->
<g id="node2" class="node">
<title>&#45;2</title>
<polygon fill="#d3d3d3" stroke="#000000" points="324.6588,-240.0366 300.6588,-240.0366 300.6588,-222.0366 324.6588,-222.0366 324.6588,-240.0366"/>
<text text-anchor="middle" x="312.6588" y="-228.8366" font-family="Times,serif" font-size="9.00" fill="#000000">&#45;2</text>
</g>
<!-- 0 -->
<g id="node17" class="node">
<title>0</title>
<ellipse fill="#add8e6" stroke="#000000" cx="253.6588" cy="-158.9741" rx="14.7" ry="14.7"/>
<text text-anchor="middle" x="253.6588" y="-156.7741" font-family="Times,serif" font-size="9.00" fill="#000000">0</text>
</g>
<!-- &#45;2&#45;&gt;0 -->
<g id="edge38" class="edge">
<title>&#45;2&#45;&gt;0</title>
<path fill="none" stroke="#00ff00" stroke-width=".8316" stroke-dasharray="1,5" d="M305.1864,-221.9098C296.353,-211.1207 281.3976,-192.8542 269.8673,-178.7712"/>
<polygon fill="#00ff00" stroke="#00ff00" stroke-width=".8316" points="272.2591,-176.1676 263.216,-170.6473 266.8429,-180.6021 272.2591,-176.1676"/>
</g>
<!-- &#45;2&#45;&gt;371 -->
<g id="edge2" class="edge">
<title>&#45;2&#45;&gt;371</title>
<path fill="none" stroke="#0000ff" stroke-width="1.157" d="M313.236,-221.9287C314.7397,-204.9384 320.0706,-167.9762 338.6588,-144.1249 355.724,-122.2278 383.7033,-106.935 405.0651,-97.7046"/>
<polygon fill="#0000ff" stroke="#0000ff" stroke-width="1.157" points="406.4324,-100.9268 414.3513,-93.8882 403.7715,-94.4522 406.4324,-100.9268"/>
</g>
<!-- &#45;3 -->
<g id="node3" class="node">
<title>&#45;3</title>
<polygon fill="#d3d3d3" stroke="#000000" points="404.6588,-167.9741 380.6588,-167.9741 380.6588,-149.9741 404.6588,-149.9741 404.6588,-167.9741"/>
<text text-anchor="middle" x="392.6588" y="-156.7741" font-family="Times,serif" font-size="9.00" fill="#000000">&#45;3</text>
</g>
<!-- &#45;3&#45;&gt;371 -->
<g id="edge3" class="edge">
<title>&#45;3&#45;&gt;371</title>
<path fill="none" stroke="#0000ff" stroke-width=".8825" d="M397.9781,-149.8474C403.2002,-140.8874 411.4279,-126.7706 418.7687,-114.1754"/>
<polygon fill="#0000ff" stroke="#0000ff" stroke-width=".8825" points="421.8899,-115.7708 423.9015,-105.3687 415.8421,-112.246 421.8899,-115.7708"/>
</g>
<!-- &#45;4 -->
<g id="node4" class="node">
<title>&#45;4</title>
<polygon fill="#d3d3d3" stroke="#000000" points="291.6588,-542.9432 267.6588,-542.9432 267.6588,-524.9432 291.6588,-524.9432 291.6588,-542.9432"/>
<text text-anchor="middle" x="279.6588" y="-531.7432" font-family="Times,serif" font-size="9.00" fill="#000000">&#45;4</text>
</g>
<!-- &#45;4&#45;&gt;2 -->
<g id="edge39" class="edge">
<title>&#45;4&#45;&gt;2</title>
<path fill="none" stroke="#00ff00" stroke-width=".483" stroke-dasharray="1,5" d="M291.7516,-533.4504C336.4543,-531.3785 491.5384,-521.8931 525.6588,-488.9432 545.7053,-469.5844 549.4764,-436.4736 549.3717,-413.6104"/>
<polygon fill="#00ff00" stroke="#00ff00" stroke-width=".483" points="552.8703,-413.5077 549.0797,-403.6142 545.8733,-413.7122 552.8703,-413.5077"/>
</g>
<!-- 1248 -->
<g id="node21" class="node">
<title>1248</title>
<ellipse fill="#ffffff" stroke="#000000" cx="613.6588" cy="-464.1945" rx="25" ry="25"/>
<text text-anchor="middle" x="613.6588" y="-461.9945" font-family="Times,serif" font-size="9.00" fill="#000000">1248</text>
</g>
<!-- &#45;4&#45;&gt;1248 -->
<g id="edge50" class="edge">
<title>&#45;4&#45;&gt;1248</title>
<path fill="none" stroke="#0000ff" stroke-width="1.8135" d="M291.9307,-533.1574C331.5115,-530.3743 459.0693,-519.4592 559.6588,-488.9432 567.1219,-486.6791 574.8881,-483.5929 582.127,-480.368"/>
<polygon fill="#0000ff" stroke="#0000ff" stroke-width="1.8135" points="584.0129,-483.3502 591.5934,-475.9484 581.0516,-477.0074 584.0129,-483.3502"/>
</g>
<!-- &#45;4&#45;&gt;1228 -->
<g id="edge45" class="edge">
<title>&#45;4&#45;&gt;1228</title>
<path fill="none" stroke="#00ff00" stroke-width="1.9996" d="M267.3441,-531.4488C238.1894,-525.2681 166.3599,-508.3338 152.6588,-488.9432 122.4297,-446.1616 141.707,-382.4473 158.0052,-344.5766"/>
<polygon fill="#00ff00" stroke="#00ff00" stroke-width="1.9996" points="161.3672,-345.6332 162.2657,-335.0765 154.9801,-342.7687 161.3672,-345.6332"/>
</g>
<!-- &#45;4&#45;&gt;447 -->
<g id="edge23" class="edge">
<title>&#45;4&#45;&gt;447</title>
<path fill="none" stroke="#00ff00" stroke-width=".5531" d="M267.4597,-532.05C235.3864,-526.7995 150.0358,-510.9754 133.6588,-488.9432 80.4462,-417.3559 108.4797,-374.1083 132.6588,-288.2498 135.8161,-277.0382 141.85,-265.8529 148.0302,-256.3852"/>
<polygon fill="#00ff00" stroke="#00ff00" stroke-width=".5531" points="151.0974,-258.1037 153.9114,-247.8893 145.3418,-254.1194 151.0974,-258.1037"/>
</g>
<!-- &#45;5 -->
<g id="node5" class="node">
<title>&#45;5</title>
<polygon fill="#d3d3d3" stroke="#000000" points="516.6588,-473.1945 492.6588,-473.1945 492.6588,-455.1945 516.6588,-455.1945 516.6588,-473.1945"/>
<text text-anchor="middle" x="504.6588" y="-461.9945" font-family="Times,serif" font-size="9.00" fill="#000000">&#45;5</text>
</g>
<!-- &#45;5&#45;&gt;2 -->
<g id="edge36" class="edge">
<title>&#45;5&#45;&gt;2</title>
<path fill="none" stroke="#00ff00" stroke-width=".6657" d="M509.9314,-454.9247C516.1495,-443.9928 526.6968,-425.4495 535.0611,-410.7444"/>
<polygon fill="#00ff00" stroke="#00ff00" stroke-width=".6657" points="538.273,-412.1766 540.1749,-401.7539 532.1884,-408.7157 538.273,-412.1766"/>
</g>
<!-- &#45;5&#45;&gt;3 -->
<g id="edge41" class="edge">
<title>&#45;5&#45;&gt;3</title>
<path fill="none" stroke="#00ff00" stroke-width=".3563" stroke-dasharray="1,5" d="M492.3947,-463.126C442.5825,-458.1967 252.6859,-433.6158 139.6588,-337.7473 76.4372,-284.1233 71.0644,-254.1733 50.6588,-173.8234 38.8301,-127.2464 37.0173,-111.7771 50.6588,-65.6985 54.0197,-54.3459 60.7996,-43.1512 67.3445,-34.1681"/>
<polygon fill="#00ff00" stroke="#00ff00" stroke-width=".3563" points="70.3168,-36.0464 73.6757,-25.9981 64.7837,-31.7586 70.3168,-36.0464"/>
</g>
<!-- &#45;5&#45;&gt;371 -->
<g id="edge4" class="edge">
<title>&#45;5&#45;&gt;371</title>
<path fill="none" stroke="#00ff00" stroke-width=".3142" d="M505.6592,-454.999C510.542,-408.7092 530.5694,-201.1651 503.6588,-144.1249 495.111,-126.0069 477.7116,-111.643 462.5244,-101.8391"/>
<polygon fill="#00ff00" stroke="#00ff00" stroke-width=".3142" points="464.283,-98.8122 453.9217,-96.5998 460.6419,-104.7907 464.283,-98.8122"/>
</g>
<!-- &#45;6 -->
<g id="node6" class="node">
<title>&#45;6</title>
<polygon fill="#d3d3d3" stroke="#000000" points="446.6588,-167.9741 422.6588,-167.9741 422.6588,-149.9741 446.6588,-149.9741 446.6588,-167.9741"/>
<text text-anchor="middle" x="434.6588" y="-156.7741" font-family="Times,serif" font-size="9.00" fill="#000000">&#45;6</text>
</g>
<!-- &#45;6&#45;&gt;371 -->
<g id="edge5" class="edge">
<title>&#45;6&#45;&gt;371</title>
<path fill="none" stroke="#00ff00" stroke-width=".154" d="M434.6588,-149.8474C434.6588,-141.9023 434.6588,-129.9024 434.6588,-118.5042"/>
<polygon fill="#00ff00" stroke="#00ff00" stroke-width=".154" points="438.1589,-118.3392 434.6588,-108.3392 431.1589,-118.3392 438.1589,-118.3392"/>
</g>
<!-- &#45;7 -->
<g id="node7" class="node">
<title>&#45;7</title>
<polygon fill="#d3d3d3" stroke="#000000" points="279.6588,-321.9985 255.6588,-321.9985 255.6588,-303.9985 279.6588,-303.9985 279.6588,-321.9985"/>
<text text-anchor="middle" x="267.6588" y="-310.7985" font-family="Times,serif" font-size="9.00" fill="#000000">&#45;7</text>
</g>
<!-- &#45;7&#45;&gt;0 -->
<g id="edge40" class="edge">
<title>&#45;7&#45;&gt;0</title>
<path fill="none" stroke="#00ff00" stroke-width=".6048" stroke-dasharray="1,5" d="M266.8249,-303.8249C264.7215,-280.6833 259.1412,-219.2901 255.9616,-184.309"/>
<polygon fill="#00ff00" stroke="#00ff00" stroke-width=".6048" points="259.412,-183.6036 255.0211,-173.9615 252.4407,-184.2374 259.412,-183.6036"/>
</g>
<!-- &#45;7&#45;&gt;447 -->
<g id="edge44" class="edge">
<title>&#45;7&#45;&gt;447</title>
<path fill="none" stroke="#0000ff" stroke-width=".5937" d="M258.2456,-303.5901C253.4002,-298.8637 247.3327,-293.1213 241.6588,-288.2498 226.0034,-274.8085 207.6587,-260.6155 193.1511,-249.7283"/>
<polygon fill="#0000ff" stroke="#0000ff" stroke-width=".5937" points="195.212,-246.8991 185.1019,-243.7307 191.0295,-252.5122 195.212,-246.8991"/>
</g>
<!-- &#45;8 -->
<g id="node8" class="node">
<title>&#45;8</title>
<polygon fill="#d3d3d3" stroke="#000000" points="116.6588,-167.9741 92.6588,-167.9741 92.6588,-149.9741 116.6588,-149.9741 116.6588,-167.9741"/>
<text text-anchor="middle" x="104.6588" y="-156.7741" font-family="Times,serif" font-size="9.00" fill="#000000">&#45;8</text>
</g>
<!-- &#45;8&#45;&gt;3 -->
<g id="edge31" class="edge">
<title>&#45;8&#45;&gt;3</title>
<path fill="none" stroke="#0000ff" stroke-width=".5079" d="M103.3451,-149.9585C100.1827,-128.2546 92.0562,-72.4812 87.2911,-39.7782"/>
<polygon fill="#0000ff" stroke="#0000ff" stroke-width=".5079" points="90.7214,-39.0454 85.816,-29.6546 83.7945,-40.0548 90.7214,-39.0454"/>
</g>
<!-- &#45;8&#45;&gt;371 -->
<g id="edge6" class="edge">
<title>&#45;8&#45;&gt;371</title>
<path fill="none" stroke="#0000ff" stroke-width=".8128" stroke-dasharray="1,5" d="M115.6797,-149.8467C118.7541,-147.683 122.203,-145.583 125.6588,-144.1249 221.2848,-103.7759 345.4264,-91.8005 402.8949,-88.3105"/>
<polygon fill="#0000ff" stroke="#0000ff" stroke-width=".8128" points="403.3613,-91.79 413.15,-87.7362 402.9698,-84.8009 403.3613,-91.79"/>
</g>
<!-- &#45;9 -->
<g id="node9" class="node">
<title>&#45;9</title>
<polygon fill="#d3d3d3" stroke="#000000" points="688.6588,-473.1945 664.6588,-473.1945 664.6588,-455.1945 688.6588,-455.1945 688.6588,-473.1945"/>
<text text-anchor="middle" x="676.6588" y="-461.9945" font-family="Times,serif" font-size="9.00" fill="#000000">&#45;9</text>
</g>
<!-- 1 -->
<g id="node18" class="node">
<title>1</title>
<ellipse fill="#add8e6" stroke="#000000" cx="826.6588" cy="-14.8492" rx="14.7" ry="14.7"/>
<text text-anchor="middle" x="826.6588" y="-12.6492" font-family="Times,serif" font-size="9.00" fill="#000000">1</text>
</g>
<!-- &#45;9&#45;&gt;1 -->
<g id="edge42" class="edge">
<title>&#45;9&#45;&gt;1</title>
<path fill="none" stroke="#0000ff" stroke-width="1.0389" d="M683.6474,-454.8386C709.1553,-420.0426 797.3278,-293.9213 827.6588,-173.8234 839.3266,-127.6237 834.8022,-71.4352 830.6189,-39.7425"/>
<polygon fill="#0000ff" stroke="#0000ff" stroke-width="1.0389" points="834.0514,-39.0192 829.1805,-29.6105 827.1209,-40.0032 834.0514,-39.0192"/>
</g>
<!-- &#45;9&#45;&gt;2 -->
<g id="edge34" class="edge">
<title>&#45;9&#45;&gt;2</title>
<path fill="none" stroke="#00ff00" stroke-width=".2544" d="M667.1856,-455.1113C661.7295,-450.1426 654.5959,-444.0749 647.6588,-439.4457 622.7373,-422.8156 591.659,-407.8111 570.8215,-398.4833"/>
<polygon fill="#00ff00" stroke="#00ff00" stroke-width=".2544" points="572.0495,-395.1999 561.4866,-394.3779 569.2314,-401.6076 572.0495,-395.1999"/>
</g>
<!-- &#45;9&#45;&gt;3 -->
<g id="edge22" class="edge">
<title>&#45;9&#45;&gt;3</title>
<path fill="none" stroke="#00ff00" stroke-width=".1195" d="M671.0701,-455.0002C658.9524,-435.9973 628.2196,-392.5982 589.6588,-373.7473 451.9514,-306.4273 380.8798,-411.7745 246.6588,-337.7473 222.1344,-324.2213 229.2727,-306.0609 207.6588,-288.2498 180.6603,-266.0015 163.9277,-275.3548 137.6588,-252.2498 105.8819,-224.3002 96.2256,-214.2341 83.6588,-173.8234 69.5093,-128.3234 74.4444,-71.8908 79.1584,-39.965"/>
<polygon fill="#00ff00" stroke="#00ff00" stroke-width=".1195" points="82.6684,-40.1786 80.7849,-29.7526 75.7555,-39.0776 82.6684,-40.1786"/>
</g>
<!-- &#45;9&#45;&gt;371 -->
<g id="edge7" class="edge">
<title>&#45;9&#45;&gt;371</title>
<path fill="none" stroke="#00ff00" stroke-width=".7492" d="M677.4848,-454.9993C679.5288,-431.4234 684.6588,-366.8849 684.6588,-312.9985 684.6588,-312.9985 684.6588,-312.9985 684.6588,-231.0366 684.6588,-186.9096 671.2162,-171.5652 636.6588,-144.1249 610.0764,-123.0172 515.2504,-102.3388 465.5523,-92.6379"/>
<polygon fill="#00ff00" stroke="#00ff00" stroke-width=".7492" points="466.154,-89.1896 455.673,-90.7382 464.8322,-96.0636 466.154,-89.1896"/>
</g>
<!-- &#45;10 -->
<g id="node10" class="node">
<title>&#45;10</title>
<polygon fill="#d3d3d3" stroke="#000000" points="494.1588,-167.9741 465.1588,-167.9741 465.1588,-149.9741 494.1588,-149.9741 494.1588,-167.9741"/>
<text text-anchor="middle" x="479.6588" y="-156.7741" font-family="Times,serif" font-size="9.00" fill="#000000">&#45;10</text>
</g>
<!-- &#45;10&#45;&gt;371 -->
<g id="edge8" class="edge">
<title>&#45;10&#45;&gt;371</title>
<path fill="none" stroke="#0000ff" stroke-width="1.4898" stroke-dasharray="1,5" d="M473.9595,-149.8474C468.3263,-140.8265 459.4289,-126.5783 451.5235,-113.9186"/>
<polygon fill="#0000ff" stroke="#0000ff" stroke-width="1.4898" points="454.2687,-111.7068 446.0033,-105.0786 448.3313,-115.4146 454.2687,-111.7068"/>
</g>
<!-- &#45;11 -->
<g id="node11" class="node">
<title>&#45;11</title>
<polygon fill="#d3d3d3" stroke="#000000" points="770.1588,-473.1945 741.1588,-473.1945 741.1588,-455.1945 770.1588,-455.1945 770.1588,-473.1945"/>
<text text-anchor="middle" x="755.6588" y="-461.9945" font-family="Times,serif" font-size="9.00" fill="#000000">&#45;11</text>
</g>
<!-- &#45;11&#45;&gt;1 -->
<g id="edge25" class="edge">
<title>&#45;11&#45;&gt;1</title>
<path fill="none" stroke="#0000ff" stroke-width=".8018" stroke-dasharray="1,5" d="M770.4567,-456.1542C804.3408,-436.5409 884.6588,-382.6987 884.6588,-312.9985 884.6588,-312.9985 884.6588,-312.9985 884.6588,-158.9741 884.6588,-116.168 878.137,-104.7737 860.6588,-65.6985 855.8457,-54.9381 848.8143,-43.9492 842.3932,-34.9528"/>
<polygon fill="#0000ff" stroke="#0000ff" stroke-width=".8018" points="845.046,-32.654 836.2803,-26.703 839.4217,-36.8214 845.046,-32.654"/>
</g>
<!-- &#45;11&#45;&gt;2 -->
<g id="edge26" class="edge">
<title>&#45;11&#45;&gt;2</title>
<path fill="none" stroke="#00ff00" stroke-width=".5503" stroke-dasharray="1,5" d="M741.0055,-457.5739C729.3545,-452.3995 712.5892,-445.1523 697.6588,-439.4457 653.7372,-422.6586 601.5647,-405.61 571.7611,-396.1394"/>
<polygon fill="#00ff00" stroke="#00ff00" stroke-width=".5503" points="572.4395,-392.6832 561.8496,-393.0076 570.3304,-399.3579 572.4395,-392.6832"/>
</g>
<!-- &#45;11&#45;&gt;371 -->
<g id="edge9" class="edge">
<title>&#45;11&#45;&gt;371</title>
<path fill="none" stroke="#0000ff" stroke-width=".6585" d="M756.4613,-455.107C759.7236,-411.8298 767.3562,-225.368 665.6588,-144.1249 634.8025,-119.4747 521.2044,-99.7339 465.6548,-91.3173"/>
<polygon fill="#0000ff" stroke="#0000ff" stroke-width=".6585" points="466.0817,-87.8424 455.6755,-89.8328 465.0516,-94.7662 466.0817,-87.8424"/>
</g>
<!-- &#45;12 -->
<g id="node12" class="node">
<title>&#45;12</title>
<polygon fill="#d3d3d3" stroke="#000000" points="720.1588,-542.9432 691.1588,-542.9432 691.1588,-524.9432 720.1588,-524.9432 720.1588,-542.9432"/>
<text text-anchor="middle" x="705.6588" y="-531.7432" font-family="Times,serif" font-size="9.00" fill="#000000">&#45;12</text>
</g>
<!-- &#45;12&#45;&gt;1248 -->
<g id="edge48" class="edge">
<title>&#45;12&#45;&gt;1248</title>
<path fill="none" stroke="#0000ff" stroke-width=".2301" d="M693.6314,-524.8248C680.4883,-514.8605 658.985,-498.5581 641.5847,-485.3662"/>
<polygon fill="#0000ff" stroke="#0000ff" stroke-width=".2301" points="643.5102,-482.4338 633.4269,-479.1814 639.2811,-488.012 643.5102,-482.4338"/>
</g>
<!-- &#45;12&#45;&gt;371 -->
<g id="edge10" class="edge">
<title>&#45;12&#45;&gt;371</title>
<path fill="none" stroke="#0000ff" stroke-width="1.1735" d="M720.2551,-527.2049C739.886,-517.8071 773.1,-500.6079 779.6588,-488.9432 841.0494,-379.7606 790.0106,-324.9496 740.6588,-209.8234 726.5134,-176.8256 723.6181,-163.9084 693.6588,-144.1249 656.3207,-119.4689 526.422,-99.2772 466.0059,-90.9799"/>
<polygon fill="#0000ff" stroke="#0000ff" stroke-width="1.1735" points="466.2887,-87.4864 455.91,-89.6156 465.3512,-94.4233 466.2887,-87.4864"/>
</g>
<!-- &#45;13 -->
<g id="node13" class="node">
<title>&#45;13</title>
<polygon fill="#d3d3d3" stroke="#000000" points="767.1588,-542.9432 738.1588,-542.9432 738.1588,-524.9432 767.1588,-524.9432 767.1588,-542.9432"/>
<text text-anchor="middle" x="752.6588" y="-531.7432" font-family="Times,serif" font-size="9.00" fill="#000000">&#45;13</text>
</g>
<!-- &#45;14 -->
<g id="node14" class="node">
<title>&#45;14</title>
<polygon fill="#d3d3d3" stroke="#000000" points="818.1588,-167.9741 789.1588,-167.9741 789.1588,-149.9741 818.1588,-149.9741 818.1588,-167.9741"/>
<text text-anchor="middle" x="803.6588" y="-156.7741" font-family="Times,serif" font-size="9.00" fill="#000000">&#45;14</text>
</g>
<!-- &#45;14&#45;&gt;1 -->
<g id="edge37" class="edge">
<title>&#45;14&#45;&gt;1</title>
<path fill="none" stroke="#00ff00" stroke-width=".2139" stroke-dasharray="1,5" d="M805.0975,-149.9585C808.5611,-128.2546 817.4617,-72.4812 822.6805,-39.7782"/>
<polygon fill="#00ff00" stroke="#00ff00" stroke-width=".2139" points="826.1764,-40.0812 824.2961,-29.6546 819.2638,-38.978 826.1764,-40.0812"/>
</g>
<!-- &#45;14&#45;&gt;371 -->
<g id="edge11" class="edge">
<title>&#45;14&#45;&gt;371</title>
<path fill="none" stroke="#00ff00" stroke-width=".3363" stroke-dasharray="1,5" d="M788.987,-150.3602C784.51,-148.0368 779.4911,-145.7261 774.6588,-144.1249 664.7763,-107.7142 526.8831,-93.6649 466.0054,-88.9707"/>
<polygon fill="#00ff00" stroke="#00ff00" stroke-width=".3363" points="466.1263,-85.4702 455.8955,-88.2235 465.6103,-92.4511 466.1263,-85.4702"/>
</g>
<!-- &#45;15 -->
<g id="node15" class="node">
<title>&#45;15</title>
<polygon fill="#d3d3d3" stroke="#000000" points="164.1588,-167.9741 135.1588,-167.9741 135.1588,-149.9741 164.1588,-149.9741 164.1588,-167.9741"/>
<text text-anchor="middle" x="149.6588" y="-156.7741" font-family="Times,serif" font-size="9.00" fill="#000000">&#45;15</text>
</g>
<!-- &#45;15&#45;&gt;3 -->
<g id="edge53" class="edge">
<title>&#45;15&#45;&gt;3</title>
<path fill="none" stroke="#0000ff" stroke-width=".3649" stroke-dasharray="1,5" d="M145.8283,-149.9122C138.7202,-133.1762 122.9131,-96.3304 108.6588,-65.6985 104.3165,-56.3671 99.3478,-46.1698 94.99,-37.3729"/>
<polygon fill="#0000ff" stroke="#0000ff" stroke-width=".3649" points="97.9895,-35.5447 90.3954,-28.1568 91.7248,-38.6679 97.9895,-35.5447"/>
</g>
<!-- &#45;15&#45;&gt;371 -->
<g id="edge12" class="edge">
<title>&#45;15&#45;&gt;371</title>
<path fill="none" stroke="#00ff00" stroke-width=".6532" d="M164.3864,-150.5215C168.865,-148.2027 173.8707,-145.854 178.6588,-144.1249 257.2722,-115.7352 354.7454,-98.6455 403.6301,-91.2451"/>
<polygon fill="#00ff00" stroke="#00ff00" stroke-width=".6532" points="404.2,-94.699 413.5795,-89.772 403.1747,-87.7745 404.2,-94.699"/>
</g>
<!-- &#45;16 -->
<g id="node16" class="node">
<title>&#45;16</title>
<polygon fill="#d3d3d3" stroke="#000000" points="580.1588,-167.9741 551.1588,-167.9741 551.1588,-149.9741 580.1588,-149.9741 580.1588,-167.9741"/>
<text text-anchor="middle" x="565.6588" y="-156.7741" font-family="Times,serif" font-size="9.00" fill="#000000">&#45;16</text>
</g>
<!-- &#45;16&#45;&gt;371 -->
<g id="edge13" class="edge">
<title>&#45;16&#45;&gt;371</title>
<path fill="none" stroke="#00ff00" stroke-width=".6358" d="M551.139,-150.9869C529.8057,-139.2515 489.5902,-117.1292 462.4591,-102.2045"/>
<polygon fill="#00ff00" stroke="#00ff00" stroke-width=".6358" points="463.9093,-99.0077 453.4605,-97.2544 460.5354,-105.141 463.9093,-99.0077"/>
</g>
<!-- 0&#45;&gt;0 -->
<g id="edge18" class="edge">
<title>0&#45;&gt;0</title>
<path fill="none" stroke="#00ff00" stroke-width="1.2455" stroke-dasharray="1,5" d="M264.4255,-169.7023C274.9474,-175.6283 286.508,-172.0523 286.508,-158.9741 286.508,-149.9829 281.0438,-145.4829 274.2096,-145.4741"/>
<polygon fill="#00ff00" stroke="#00ff00" stroke-width="1.2455" points="273.0928,-142.1527 264.4255,-148.246 275.0009,-148.8877 273.0928,-142.1527"/>
</g>
<!-- 0&#45;&gt;1228 -->
<g id="edge52" class="edge">
<title>0&#45;&gt;1228</title>
<path fill="none" stroke="#0000ff" stroke-width=".2778" d="M248.916,-173.3166C242.4881,-192.0152 230.1357,-225.4891 215.6588,-252.2498 209.6662,-263.3272 202.0888,-274.8475 195.0252,-284.84"/>
<polygon fill="#0000ff" stroke="#0000ff" stroke-width=".2778" points="192.0205,-283.0225 189.0027,-293.1785 197.6952,-287.1211 192.0205,-283.0225"/>
</g>
<!-- 0&#45;&gt;371 -->
<g id="edge43" class="edge">
<title>0&#45;&gt;371</title>
<path fill="none" stroke="#00ff00" stroke-width=".1102" d="M266.835,-152.0645C295.8606,-139.2366 364.8075,-111.6996 404.8269,-96.8648"/>
<polygon fill="#00ff00" stroke="#00ff00" stroke-width=".1102" points="406.1489,-100.1081 414.3361,-93.3836 403.7424,-93.5347 406.1489,-100.1081"/>
</g>
<!-- 0&#45;&gt;447 -->
<g id="edge30" class="edge">
<title>0&#45;&gt;447</title>
<path fill="none" stroke="#0000ff" stroke-width="1.4442" d="M244.6239,-170.8738C232.5472,-182.5384 211.4077,-200.4478 194.2212,-213.6956"/>
<polygon fill="#0000ff" stroke="#0000ff" stroke-width="1.4442" points="192.0348,-210.9607 186.1588,-219.7768 196.2501,-216.5493 192.0348,-210.9607"/>
</g>
<!-- 2&#45;&gt;2 -->
<g id="edge19" class="edge">
<title>2&#45;&gt;2</title>
<path fill="none" stroke="#0000ff" stroke-width=".3271" d="M558.0864,-399.4228C568.6975,-405.7912 580.508,-402.1824 580.508,-388.5965 580.508,-379.2562 574.9257,-374.6316 567.9887,-374.7228"/>
<polygon fill="#0000ff" stroke="#0000ff" stroke-width=".3271" points="566.6146,-371.4836 558.0864,-377.7702 568.6736,-378.174 566.6146,-371.4836"/>
</g>
<!-- 2&#45;&gt;1228 -->
<g id="edge51" class="edge">
<title>2&#45;&gt;1228</title>
<path fill="none" stroke="#00ff00" stroke-width=".6023" stroke-dasharray="1,5" d="M532.5219,-387.1068C475.5123,-381.3711 273.9344,-359.9257 213.6588,-337.7473 210.0759,-336.4289 206.4677,-334.7668 202.9628,-332.9303"/>
<polygon fill="#00ff00" stroke="#00ff00" stroke-width=".6023" points="204.4278,-329.7351 194.0152,-327.7784 200.9349,-335.8014 204.4278,-329.7351"/>
</g>
<!-- 3&#45;&gt;3 -->
<g id="edge20" class="edge">
<title>3&#45;&gt;3</title>
<path fill="none" stroke="#0000ff" stroke-width=".45" d="M94.4255,-25.5774C104.9474,-31.5034 116.508,-27.9274 116.508,-14.8492 116.508,-5.858 111.0438,-1.358 104.2096,-1.3493"/>
<polygon fill="#0000ff" stroke="#0000ff" stroke-width=".45" points="103.0928,1.9722 94.4255,-4.1211 105.0009,-4.7628 103.0928,1.9722"/>
</g>
<!-- 1248&#45;&gt;2 -->
<g id="edge54" class="edge">
<title>1248&#45;&gt;2</title>
<path fill="none" stroke="#00ff00" stroke-width="1.0994" d="M597.3442,-445.5073C587.2689,-433.9669 574.3778,-419.2011 564.2513,-407.602"/>
<polygon fill="#00ff00" stroke="#00ff00" stroke-width="1.0994" points="566.6594,-405.0384 557.4461,-399.8072 561.3863,-409.6421 566.6594,-405.0384"/>
</g>
<!-- 1248&#45;&gt;371 -->
<g id="edge49" class="edge">
<title>1248&#45;&gt;371</title>
<path fill="none" stroke="#00ff00" stroke-width=".8176" d="M622.0715,-440.7107C631.8485,-411.2728 646.6588,-359.0759 646.6588,-312.9985 646.6588,-312.9985 646.6588,-312.9985 646.6588,-231.0366 646.6588,-189.2266 641.3588,-172.5077 610.6588,-144.1249 570.1176,-106.6438 504.6992,-93.7021 466.0697,-89.2438"/>
<polygon fill="#00ff00" stroke="#00ff00" stroke-width=".8176" points="466.2338,-85.7422 455.9275,-88.1979 465.5157,-92.7053 466.2338,-85.7422"/>
</g>
<!-- 1228&#45;&gt;447 -->
<g id="edge46" class="edge">
<title>1228&#45;&gt;447</title>
<path fill="none" stroke="#0000ff" stroke-width=".4773" stroke-dasharray="1,5" d="M171.826,-287.9619C171.2396,-279.9514 170.5827,-270.978 169.9669,-262.5665"/>
<polygon fill="#0000ff" stroke="#0000ff" stroke-width=".4773" points="173.4382,-262.0449 169.2173,-252.3271 166.4569,-262.556 173.4382,-262.0449"/>
</g>
<!-- 371&#45;&gt;0 -->
<g id="edge14" class="edge">
<title>371&#45;&gt;0</title>
<path fill="none" stroke="#0000ff" stroke-width="1.0259" d="M415.5913,-96.3913C382.3575,-110.7296 314.5755,-137.6733 278.0109,-151.0388"/>
<polygon fill="#0000ff" stroke="#0000ff" stroke-width="1.0259" points="276.3884,-147.9025 268.1586,-154.5748 278.7531,-154.491 276.3884,-147.9025"/>
</g>
<!-- 371&#45;&gt;1 -->
<g id="edge15" class="edge">
<title>371&#45;&gt;1</title>
<path fill="none" stroke="#0000ff" stroke-width="1.1918" stroke-dasharray="1,5" d="M455.7344,-83.0373C522.5927,-70.7466 729.7492,-32.6644 801.7187,-19.4341"/>
<polygon fill="#0000ff" stroke="#0000ff" stroke-width="1.1918" points="802.4939,-22.8503 811.6962,-17.5998 801.2282,-15.9656 802.4939,-22.8503"/>
</g>
<!-- 371&#45;&gt;2 -->
<g id="edge16" class="edge">
<title>371&#45;&gt;2</title>
<path fill="none" stroke="#00ff00" stroke-width=".8128" stroke-dasharray="1,5" d="M455.6243,-91.5448C494.1861,-100.5373 573.8744,-121.4733 589.6588,-144.1249 638.2739,-213.8908 586.9079,-321.475 560.8715,-367.0334"/>
<polygon fill="#00ff00" stroke="#00ff00" stroke-width=".8128" points="557.7833,-365.3807 555.7452,-375.7776 563.8221,-368.9209 557.7833,-365.3807"/>
</g>
<!-- 371&#45;&gt;3 -->
<g id="edge17" class="edge">
<title>371&#45;&gt;3</title>
<path fill="none" stroke="#0000ff" stroke-width=".875" d="M413.7533,-82.6197C352.5197,-70.048 173.7626,-33.3481 108.1645,-19.8804"/>
<polygon fill="#0000ff" stroke="#0000ff" stroke-width=".875" points="108.8005,-16.4381 98.3009,-17.8554 107.3926,-23.295 108.8005,-16.4381"/>
</g>
<!-- 371&#45;&gt;371 -->
<g id="edge21" class="edge">
<title>371&#45;&gt;371</title>
<path fill="none" stroke="#00ff00" stroke-width=".3451" d="M451.9954,-99.3438C463.1432,-102.587 473.872,-98.4429 473.872,-86.9117 473.872,-78.984 468.801,-74.5478 462.0091,-73.6033"/>
<polygon fill="#00ff00" stroke="#00ff00" stroke-width=".3451" points="461.6522,-70.1211 451.9954,-74.4796 462.2625,-77.0944 461.6522,-70.1211"/>
</g>
<!-- 371&#45;&gt;447 -->
<g id="edge29" class="edge">
<title>371&#45;&gt;447</title>
<path fill="none" stroke="#0000ff" stroke-width="2.0339" stroke-dasharray="1,5" d="M413.3743,-88.7432C374.9864,-92.7443 294.0183,-105.2962 238.6588,-144.1249 216.2584,-159.8364 199.0759,-186.3278 186.8165,-205.9424"/>
<polygon fill="#0000ff" stroke="#0000ff" stroke-width="2.0339" points="183.6916,-204.3386 181.3611,-214.6739 189.6281,-208.0477 183.6916,-204.3386"/>
</g>
<!-- 447&#45;&gt;0 -->
<g id="edge32" class="edge">
<title>447&#45;&gt;0</title>
<path fill="none" stroke="#0000ff" stroke-width=".202" stroke-dasharray="1,5" d="M181.4127,-214.6845C195.28,-201.8607 216.4378,-184.2394 232.4122,-172.273"/>
<polygon fill="#0000ff" stroke="#0000ff" stroke-width=".202" points="234.6394,-174.9812 240.6743,-166.2731 230.5262,-169.3171 234.6394,-174.9812"/>
</g>
<!-- 447&#45;&gt;371 -->
<g id="edge24" class="edge">
<title>447&#45;&gt;371</title>
<path fill="none" stroke="#0000ff" stroke-width="1.0949" d="M170.5354,-209.9714C178.6856,-190.1062 196.6834,-160.941 220.6588,-144.1249 276.5306,-104.9369 358.487,-92.5143 403.1884,-88.6343"/>
<polygon fill="#0000ff" stroke="#0000ff" stroke-width="1.0949" points="403.4899,-92.1215 413.1884,-87.8565 402.947,-85.1426 403.4899,-92.1215"/>
</g>
<!-- 447&#45;&gt;447 -->
<g id="edge28" class="edge">
<title>447&#45;&gt;447</title>
<path fill="none" stroke="#0000ff" stroke-width=".8194" d="M184.9954,-243.4687C196.1432,-246.7119 206.872,-242.5678 206.872,-231.0366 206.872,-223.1088 201.801,-218.6727 195.0091,-217.7282"/>
<polygon fill="#0000ff" stroke="#0000ff" stroke-width=".8194" points="194.6522,-214.246 184.9954,-218.6045 195.2625,-221.2193 194.6522,-214.246"/>
</g>
</g>
</svg>
