<?xml version="1.0" encoding="UTF-8" standalone="no"?>
<!DOCTYPE svg PUBLIC "-//W3C//DTD SVG 1.1//EN"
 "http://www.w3.org/Graphics/SVG/1.1/DTD/svg11.dtd">
<!-- Generated by graphviz version 2.40.1 (20161225.0304)
 -->
<!-- Title: %3 Pages: 1 -->
<svg width="698pt" height="170pt"
 viewBox="0.00 0.00 698.00 170.12" xmlns="http://www.w3.org/2000/svg" xmlns:xlink="http://www.w3.org/1999/xlink">
<g id="graph0" class="graph" transform="scale(1 1) rotate(0) translate(4 166.1249)">
<title>%3</title>
<polygon fill="#ffffff" stroke="transparent" points="-4,4 -4,-166.1249 694,-166.1249 694,4 -4,4"/>
<!-- &#45;1 -->
<g id="node1" class="node">
<title>&#45;1</title>
<polygon fill="#d3d3d3" stroke="#000000" points="480,-162.1249 456,-162.1249 456,-144.1249 480,-144.1249 480,-162.1249"/>
<text text-anchor="middle" x="468" y="-150.9249" font-family="Times,serif" font-size="9.00" fill="#000000">&#45;1</text>
</g>
<!-- 360 -->
<g id="node21" class="node">
<title>360</title>
<ellipse fill="#ffffff" stroke="#000000" cx="390" cy="-86.9117" rx="21.4286" ry="21.4286"/>
<text text-anchor="middle" x="390" y="-84.7117" font-family="Times,serif" font-size="9.00" fill="#000000">360</text>
</g>
<!-- &#45;1&#45;&gt;360 -->
<g id="edge1" class="edge">
<title>&#45;1&#45;&gt;360</title>
<path fill="none" stroke="#00ff00" stroke-width=".5021" d="M457.1544,-143.9182C445.9935,-134.4439 428.2456,-119.3779 413.7978,-107.1133"/>
<polygon fill="#00ff00" stroke="#00ff00" stroke-width=".5021" points="416.0621,-104.4445 406.1735,-100.6412 411.532,-109.781 416.0621,-104.4445"/>
</g>
<!-- 361 -->
<g id="node22" class="node">
<title>361</title>
<ellipse fill="#ffffff" stroke="#000000" cx="468" cy="-86.9117" rx="21.4286" ry="21.4286"/>
<text text-anchor="middle" x="468" y="-84.7117" font-family="Times,serif" font-size="9.00" fill="#000000">361</text>
</g>
<!-- &#45;1&#45;&gt;361 -->
<g id="edge2" class="edge">
<title>&#45;1&#45;&gt;361</title>
<path fill="none" stroke="#0000ff" stroke-width=".105" d="M468,-143.9182C468,-137.2572 468,-127.8323 468,-118.5602"/>
<polygon fill="#0000ff" stroke="#0000ff" stroke-width=".105" points="471.5001,-118.312 468,-108.3121 464.5001,-118.3121 471.5001,-118.312"/>
</g>
<!-- 362 -->
<g id="node23" class="node">
<title>362</title>
<ellipse fill="#ffffff" stroke="#000000" cx="234" cy="-86.9117" rx="21.4286" ry="21.4286"/>
<text text-anchor="middle" x="234" y="-84.7117" font-family="Times,serif" font-size="9.00" fill="#000000">362</text>
</g>
<!-- &#45;1&#45;&gt;362 -->
<g id="edge3" class="edge">
<title>&#45;1&#45;&gt;362</title>
<path fill="none" stroke="#0000ff" stroke-width=".2421" d="M455.7117,-147.3969C452.8882,-146.2107 449.871,-145.0441 447,-144.1249 375.5159,-121.2381 353.3543,-131.4131 282,-108.1249 275.634,-106.0472 268.9667,-103.4139 262.696,-100.7153"/>
<polygon fill="#0000ff" stroke="#0000ff" stroke-width=".2421" points="263.8256,-97.3862 253.2686,-96.4914 260.9634,-103.7744 263.8256,-97.3862"/>
</g>
<!-- 363 -->
<g id="node24" class="node">
<title>363</title>
<ellipse fill="#ffffff" stroke="#000000" cx="312" cy="-86.9117" rx="21.4286" ry="21.4286"/>
<text text-anchor="middle" x="312" y="-84.7117" font-family="Times,serif" font-size="9.00" fill="#000000">363</text>
</g>
<!-- &#45;1&#45;&gt;363 -->
<g id="edge4" class="edge">
<title>&#45;1&#45;&gt;363</title>
<path fill="none" stroke="#00ff00" stroke-width=".13" d="M455.5741,-147.769C452.7577,-146.5635 449.7782,-145.295 447,-144.1249 408.4345,-127.8825 398.4736,-124.5837 360,-108.1249 353.8432,-105.4911 347.2651,-102.621 341.015,-99.8674"/>
<polygon fill="#00ff00" stroke="#00ff00" stroke-width=".13" points="342.1321,-96.5344 331.5712,-95.687 339.2987,-102.9353 342.1321,-96.5344"/>
</g>
<!-- &#45;2 -->
<g id="node2" class="node">
<title>&#45;2</title>
<polygon fill="#d3d3d3" stroke="#000000" points="522,-162.1249 498,-162.1249 498,-144.1249 522,-144.1249 522,-162.1249"/>
<text text-anchor="middle" x="510" y="-150.9249" font-family="Times,serif" font-size="9.00" fill="#000000">&#45;2</text>
</g>
<!-- &#45;2&#45;&gt;360 -->
<g id="edge5" class="edge">
<title>&#45;2&#45;&gt;360</title>
<path fill="none" stroke="#0000ff" stroke-width=".1675" d="M497.6099,-146.2883C478.9191,-135.9752 443.0252,-116.1697 417.849,-102.2781"/>
<polygon fill="#0000ff" stroke="#0000ff" stroke-width=".1675" points="419.2295,-99.0424 408.783,-97.2757 415.8477,-105.1713 419.2295,-99.0424"/>
</g>
<!-- &#45;2&#45;&gt;361 -->
<g id="edge6" class="edge">
<title>&#45;2&#45;&gt;361</title>
<path fill="none" stroke="#00ff00" stroke-width=".2668" d="M504.1601,-143.9182C499.1942,-136.0896 491.8067,-124.4431 485.0011,-113.7139"/>
<polygon fill="#00ff00" stroke="#00ff00" stroke-width=".2668" points="487.7991,-111.5908 479.4871,-105.0211 481.888,-115.3404 487.7991,-111.5908"/>
</g>
<!-- &#45;2&#45;&gt;362 -->
<g id="edge7" class="edge">
<title>&#45;2&#45;&gt;362</title>
<path fill="none" stroke="#0000ff" stroke-width=".4242" d="M497.7398,-147.3058C494.9148,-146.1244 491.89,-144.9827 489,-144.1249 399.4794,-117.553 371.3698,-135.1995 282,-108.1249 275.5912,-106.1833 268.9057,-103.608 262.6307,-100.9229"/>
<polygon fill="#0000ff" stroke="#0000ff" stroke-width=".4242" points="263.7627,-97.5945 253.2066,-96.6883 260.8936,-103.9795 263.7627,-97.5945"/>
</g>
<!-- &#45;2&#45;&gt;363 -->
<g id="edge8" class="edge">
<title>&#45;2&#45;&gt;363</title>
<path fill="none" stroke="#0000ff" stroke-width=".7542" d="M497.6709,-147.5184C494.8495,-146.3259 491.8435,-145.126 489,-144.1249 432.8541,-124.3575 416.0339,-128.2075 360,-108.1249 353.6962,-105.8656 347.0554,-103.155 340.7908,-100.4384"/>
<polygon fill="#0000ff" stroke="#0000ff" stroke-width=".7542" points="341.9168,-97.1083 331.3585,-96.2287 339.0638,-103.5005 341.9168,-97.1083"/>
</g>
<!-- &#45;3 -->
<g id="node3" class="node">
<title>&#45;3</title>
<polygon fill="#d3d3d3" stroke="#000000" points="564,-162.1249 540,-162.1249 540,-144.1249 564,-144.1249 564,-162.1249"/>
<text text-anchor="middle" x="552" y="-150.9249" font-family="Times,serif" font-size="9.00" fill="#000000">&#45;3</text>
</g>
<!-- &#45;3&#45;&gt;360 -->
<g id="edge9" class="edge">
<title>&#45;3&#45;&gt;360</title>
<path fill="none" stroke="#00ff00" stroke-width=".4546" d="M539.5938,-147.7215C536.7764,-146.5185 533.7915,-145.2629 531,-144.1249 489.9576,-127.3926 478.9477,-125.0876 438,-108.1249 431.8133,-105.562 425.2225,-102.7222 418.9694,-99.9757"/>
<polygon fill="#00ff00" stroke="#00ff00" stroke-width=".4546" points="420.0884,-96.6432 409.528,-95.7897 417.2512,-103.0425 420.0884,-96.6432"/>
</g>
<!-- &#45;3&#45;&gt;361 -->
<g id="edge10" class="edge">
<title>&#45;3&#45;&gt;361</title>
<path fill="none" stroke="#00ff00" stroke-width=".8491" d="M540.3202,-143.9182C528.1486,-134.324 508.7026,-118.9956 493.0393,-106.6489"/>
<polygon fill="#00ff00" stroke="#00ff00" stroke-width=".8491" points="494.817,-103.5936 484.7968,-100.1518 490.4836,-109.0911 494.817,-103.5936"/>
</g>
<!-- &#45;3&#45;&gt;362 -->
<g id="edge11" class="edge">
<title>&#45;3&#45;&gt;362</title>
<path fill="none" stroke="#0000ff" stroke-width="1.2188" d="M539.7576,-147.2444C536.9317,-146.0661 533.9019,-144.9413 531,-144.1249 423.3611,-113.8433 389.467,-139.011 282,-108.1249 275.564,-106.2752 268.867,-103.739 262.5893,-101.0629"/>
<polygon fill="#0000ff" stroke="#0000ff" stroke-width="1.2188" points="263.7228,-97.7349 253.1674,-96.8212 260.8491,-104.1179 263.7228,-97.7349"/>
</g>
<!-- &#45;3&#45;&gt;363 -->
<g id="edge12" class="edge">
<title>&#45;3&#45;&gt;363</title>
<path fill="none" stroke="#00ff00" stroke-width=".8155" d="M539.7167,-147.3813C536.8929,-146.1959 533.8744,-145.0336 531,-144.1249 456.9465,-120.7139 433.9208,-131.9517 360,-108.1249 353.6264,-106.0705 346.956,-103.4471 340.6845,-100.7509"/>
<polygon fill="#00ff00" stroke="#00ff00" stroke-width=".8155" points="341.8145,-97.4219 331.2576,-96.5251 338.9511,-103.8095 341.8145,-97.4219"/>
</g>
<!-- &#45;4 -->
<g id="node4" class="node">
<title>&#45;4</title>
<polygon fill="#d3d3d3" stroke="#000000" points="606,-162.1249 582,-162.1249 582,-144.1249 606,-144.1249 606,-162.1249"/>
<text text-anchor="middle" x="594" y="-150.9249" font-family="Times,serif" font-size="9.00" fill="#000000">&#45;4</text>
</g>
<!-- &#45;4&#45;&gt;360 -->
<g id="edge13" class="edge">
<title>&#45;4&#45;&gt;360</title>
<path fill="none" stroke="#00ff00" stroke-width=".1107" d="M581.6794,-147.494C578.8576,-146.3028 575.8492,-145.1096 573,-144.1249 514.3094,-123.8416 496.5757,-128.7377 438,-108.1249 431.6832,-105.902 425.0369,-103.2069 418.771,-100.494"/>
<polygon fill="#00ff00" stroke="#00ff00" stroke-width=".1107" points="419.8978,-97.164 409.3398,-96.2814 417.043,-103.5555 419.8978,-97.164"/>
</g>
<!-- &#45;4&#45;&gt;361 -->
<g id="edge14" class="edge">
<title>&#45;4&#45;&gt;361</title>
<path fill="none" stroke="#0000ff" stroke-width=".3983" d="M581.9186,-146.7761C562.3034,-136.4683 523.0184,-115.8239 496.1203,-101.6889"/>
<polygon fill="#0000ff" stroke="#0000ff" stroke-width=".3983" points="497.6555,-98.5419 487.1752,-96.9883 494.3992,-104.7384 497.6555,-98.5419"/>
</g>
<!-- &#45;4&#45;&gt;362 -->
<g id="edge15" class="edge">
<title>&#45;4&#45;&gt;362</title>
<path fill="none" stroke="#0000ff" stroke-width=".1595" d="M581.7698,-147.2002C578.9432,-146.0243 575.9101,-144.9115 573,-144.1249 447.1954,-110.1203 407.6115,-142.8361 282,-108.1249 275.5454,-106.3413 268.8405,-103.8332 262.561,-101.1637"/>
<polygon fill="#0000ff" stroke="#0000ff" stroke-width=".1595" points="263.6954,-97.8359 253.1405,-96.9168 260.8185,-104.2174 263.6954,-97.8359"/>
</g>
<!-- &#45;4&#45;&gt;363 -->
<g id="edge16" class="edge">
<title>&#45;4&#45;&gt;363</title>
<path fill="none" stroke="#0000ff" stroke-width=".3852" d="M581.7428,-147.2956C578.9177,-146.1147 575.892,-144.9758 573,-144.1249 480.895,-117.0241 451.9512,-135.7429 360,-108.1249 353.5866,-106.1986 346.8991,-103.6298 340.6237,-100.9461"/>
<polygon fill="#0000ff" stroke="#0000ff" stroke-width=".3852" points="341.7559,-97.6178 331.2,-96.7104 338.8861,-104.0025 341.7559,-97.6178"/>
</g>
<!-- &#45;5 -->
<g id="node5" class="node">
<title>&#45;5</title>
<polygon fill="#d3d3d3" stroke="#000000" points="648,-162.1249 624,-162.1249 624,-144.1249 648,-144.1249 648,-162.1249"/>
<text text-anchor="middle" x="636" y="-150.9249" font-family="Times,serif" font-size="9.00" fill="#000000">&#45;5</text>
</g>
<!-- &#45;5&#45;&gt;360 -->
<g id="edge17" class="edge">
<title>&#45;5&#45;&gt;360</title>
<path fill="none" stroke="#00ff00" stroke-width=".3866" d="M623.7213,-147.3667C620.8973,-146.1821 617.8775,-145.0237 615,-144.1249 538.3742,-120.1888 514.49,-132.4913 438,-108.1249 431.6194,-106.0923 424.946,-103.4783 418.6738,-100.7841"/>
<polygon fill="#00ff00" stroke="#00ff00" stroke-width=".3866" points="419.8042,-97.4553 409.2475,-96.5567 416.9397,-103.8424 419.8042,-97.4553"/>
</g>
<!-- &#45;5&#45;&gt;361 -->
<g id="edge18" class="edge">
<title>&#45;5&#45;&gt;361</title>
<path fill="none" stroke="#0000ff" stroke-width=".7447" d="M623.5922,-147.7253C620.7749,-146.5221 617.7905,-145.2655 615,-144.1249 574.4603,-127.5542 527.2046,-109.3596 497.4443,-98.0367"/>
<polygon fill="#0000ff" stroke="#0000ff" stroke-width=".7447" points="498.6485,-94.7502 488.0573,-94.4725 496.1636,-101.2943 498.6485,-94.7502"/>
</g>
<!-- &#45;5&#45;&gt;362 -->
<g id="edge19" class="edge">
<title>&#45;5&#45;&gt;362</title>
<path fill="none" stroke="#00ff00" stroke-width=".2455" d="M623.7786,-147.167C620.9516,-145.9927 617.9161,-144.8891 615,-144.1249 471,-106.3891 425.7857,-146.6694 282,-108.1249 275.5319,-106.391 268.8212,-103.9041 262.5403,-101.2395"/>
<polygon fill="#00ff00" stroke="#00ff00" stroke-width=".2455" points="263.6754,-97.9119 253.1209,-96.9887 260.7961,-104.2923 263.6754,-97.9119"/>
</g>
<!-- &#45;5&#45;&gt;363 -->
<g id="edge20" class="edge">
<title>&#45;5&#45;&gt;363</title>
<path fill="none" stroke="#0000ff" stroke-width=".1232" d="M623.7596,-147.2372C620.9336,-146.0593 617.9033,-144.9364 615,-144.1249 504.7684,-113.3121 470.0567,-139.5567 360,-108.1249 353.561,-106.2859 346.8626,-103.7543 340.5847,-101.0793"/>
<polygon fill="#0000ff" stroke="#0000ff" stroke-width=".1232" points="341.7183,-97.7513 331.163,-96.8367 338.8441,-104.1341 341.7183,-97.7513"/>
</g>
<!-- &#45;6 -->
<g id="node6" class="node">
<title>&#45;6</title>
<polygon fill="#d3d3d3" stroke="#000000" points="690,-162.1249 666,-162.1249 666,-144.1249 690,-144.1249 690,-162.1249"/>
<text text-anchor="middle" x="678" y="-150.9249" font-family="Times,serif" font-size="9.00" fill="#000000">&#45;6</text>
</g>
<!-- &#45;6&#45;&gt;360 -->
<g id="edge21" class="edge">
<title>&#45;6&#45;&gt;360</title>
<path fill="none" stroke="#00ff00" stroke-width=".6179" d="M665.7457,-147.286C662.9204,-146.1056 659.8939,-144.9693 657,-144.1249 562.3091,-116.4949 532.5341,-136.2866 438,-108.1249 431.5822,-106.213 424.8929,-103.6504 418.6171,-100.9682"/>
<polygon fill="#00ff00" stroke="#00ff00" stroke-width=".6179" points="419.7495,-97.6399 409.1937,-96.7313 416.879,-104.0243 419.7495,-97.6399"/>
</g>
<!-- &#45;6&#45;&gt;361 -->
<g id="edge22" class="edge">
<title>&#45;6&#45;&gt;361</title>
<path fill="none" stroke="#0000ff" stroke-width=".6177" d="M665.6545,-147.5642C662.8339,-146.3694 659.8324,-145.1569 657,-144.1249 601.9413,-124.0632 536.1482,-105.2851 498.5014,-95.0203"/>
<polygon fill="#0000ff" stroke="#0000ff" stroke-width=".6177" points="499.2288,-91.5914 488.6617,-92.3569 497.3998,-98.3482 499.2288,-91.5914"/>
</g>
<!-- &#45;6&#45;&gt;362 -->
<g id="edge23" class="edge">
<title>&#45;6&#45;&gt;362</title>
<path fill="none" stroke="#00ff00" stroke-width="1.0916" d="M665.7853,-147.141C662.958,-145.9681 659.9206,-144.8716 657,-144.1249 494.7846,-102.6528 443.9798,-150.508 282,-108.1249 275.5216,-106.4298 268.8065,-103.9594 262.5246,-101.2986"/>
<polygon fill="#00ff00" stroke="#00ff00" stroke-width="1.0916" points="263.6603,-97.9712 253.106,-97.0448 260.779,-104.3507 263.6603,-97.9712"/>
</g>
<!-- &#45;6&#45;&gt;363 -->
<g id="edge24" class="edge">
<title>&#45;6&#45;&gt;363</title>
<path fill="none" stroke="#00ff00" stroke-width=".1003" d="M665.7712,-147.1949C662.9446,-146.0192 659.9111,-144.9079 657,-144.1249 528.5976,-109.5876 488.2063,-143.3833 360,-108.1249 353.5432,-106.3492 346.8373,-103.8445 340.5576,-101.1758"/>
<polygon fill="#00ff00" stroke="#00ff00" stroke-width=".1003" points="341.6922,-97.848 331.1373,-96.9283 338.8148,-104.2294 341.6922,-97.848"/>
</g>
<!-- &#45;7 -->
<g id="node7" class="node">
<title>&#45;7</title>
<polygon fill="#d3d3d3" stroke="#000000" points="24,-162.1249 0,-162.1249 0,-144.1249 24,-144.1249 24,-162.1249"/>
<text text-anchor="middle" x="12" y="-150.9249" font-family="Times,serif" font-size="9.00" fill="#000000">&#45;7</text>
</g>
<!-- &#45;7&#45;&gt;360 -->
<g id="edge25" class="edge">
<title>&#45;7&#45;&gt;360</title>
<path fill="none" stroke="#00ff00" stroke-width=".5274" d="M24.2225,-147.1712C27.0494,-145.9967 30.0846,-144.8919 33,-144.1249 174.3993,-106.9225 223.2938,-159.9822 360,-108.1249 361.6402,-107.5027 363.2741,-106.7694 364.8843,-105.9561"/>
<polygon fill="#00ff00" stroke="#00ff00" stroke-width=".5274" points="366.959,-108.7926 373.7236,-100.6384 363.3505,-102.7943 366.959,-108.7926"/>
</g>
<!-- &#45;7&#45;&gt;361 -->
<g id="edge26" class="edge">
<title>&#45;7&#45;&gt;361</title>
<path fill="none" stroke="#0000ff" stroke-width=".4163" d="M24.2108,-147.1257C27.0383,-145.9537 30.0767,-144.8613 33,-144.1249 208.2352,-99.9817 268.3747,-170.4407 438,-108.1249 439.6466,-107.52 441.2856,-106.8002 442.8997,-105.9973"/>
<polygon fill="#0000ff" stroke="#0000ff" stroke-width=".4163" points="444.9607,-108.8431 451.7502,-100.7096 441.3705,-102.8339 444.9607,-108.8431"/>
</g>
<!-- &#45;7&#45;&gt;362 -->
<g id="edge27" class="edge">
<title>&#45;7&#45;&gt;362</title>
<path fill="none" stroke="#0000ff" stroke-width=".5648" d="M24.3329,-147.5292C27.1542,-146.3362 30.1591,-145.1333 33,-144.1249 92.3212,-123.0673 163.5561,-104.2738 203.31,-94.3473"/>
<polygon fill="#0000ff" stroke="#0000ff" stroke-width=".5648" points="204.3164,-97.7039 213.1823,-91.9033 202.6342,-90.909 204.3164,-97.7039"/>
</g>
<!-- &#45;7&#45;&gt;363 -->
<g id="edge28" class="edge">
<title>&#45;7&#45;&gt;363</title>
<path fill="none" stroke="#00ff00" stroke-width=".5912" d="M24.2424,-147.2444C27.0683,-146.0661 30.0981,-144.9413 33,-144.1249 140.6389,-113.8433 178.1398,-149.5516 282,-108.1249 283.6294,-107.475 285.2548,-106.7199 286.8585,-105.8898"/>
<polygon fill="#00ff00" stroke="#00ff00" stroke-width=".5912" points="288.9547,-108.7114 295.6791,-100.524 285.3167,-102.731 288.9547,-108.7114"/>
</g>
<!-- &#45;8 -->
<g id="node8" class="node">
<title>&#45;8</title>
<polygon fill="#d3d3d3" stroke="#000000" points="66,-162.1249 42,-162.1249 42,-144.1249 66,-144.1249 66,-162.1249"/>
<text text-anchor="middle" x="54" y="-150.9249" font-family="Times,serif" font-size="9.00" fill="#000000">&#45;8</text>
</g>
<!-- &#45;8&#45;&gt;360 -->
<g id="edge29" class="edge">
<title>&#45;8&#45;&gt;360</title>
<path fill="none" stroke="#00ff00" stroke-width=".1687" d="M66.2317,-147.2057C69.0582,-146.0295 72.0909,-144.9152 75,-144.1249 198.2074,-110.6527 240.9929,-154.3607 360,-108.1249 361.6351,-107.4896 363.2651,-106.7461 364.8723,-105.9248"/>
<polygon fill="#00ff00" stroke="#00ff00" stroke-width=".1687" points="366.9572,-108.7542 373.7029,-100.5844 363.3347,-102.7644 366.9572,-108.7542"/>
</g>
<!-- &#45;8&#45;&gt;361 -->
<g id="edge30" class="edge">
<title>&#45;8&#45;&gt;361</title>
<path fill="none" stroke="#00ff00" stroke-width=".4658" d="M66.2164,-147.1478C69.0437,-145.9746 72.0805,-144.8762 75,-144.1249 232.0094,-103.7207 286.1066,-164.8069 438,-108.1249 439.6435,-107.5116 441.2801,-106.7853 442.8923,-105.9773"/>
<polygon fill="#00ff00" stroke="#00ff00" stroke-width=".4658" points="444.96,-108.8185 451.7374,-100.675 441.3608,-102.8146 444.96,-108.8185"/>
</g>
<!-- &#45;8&#45;&gt;362 -->
<g id="edge31" class="edge">
<title>&#45;8&#45;&gt;362</title>
<path fill="none" stroke="#00ff00" stroke-width=".8889" d="M66.3863,-147.6718C69.2047,-146.4714 72.1951,-145.2295 75,-144.1249 119.5819,-126.5686 171.9956,-108.1264 204.102,-97.0745"/>
<polygon fill="#00ff00" stroke="#00ff00" stroke-width=".8889" points="205.4532,-100.3113 213.777,-93.7564 203.1823,-93.6899 205.4532,-100.3113"/>
</g>
<!-- &#45;8&#45;&gt;363 -->
<g id="edge32" class="edge">
<title>&#45;8&#45;&gt;363</title>
<path fill="none" stroke="#00ff00" stroke-width=".2143" d="M66.2602,-147.3058C69.0852,-146.1244 72.11,-144.9827 75,-144.1249 164.5206,-117.553 195.7679,-143.9582 282,-108.1249 283.6199,-107.4518 285.238,-106.6784 286.8359,-105.8343"/>
<polygon fill="#00ff00" stroke="#00ff00" stroke-width=".2143" points="288.9498,-108.6434 295.6401,-100.4281 285.2869,-102.6782 288.9498,-108.6434"/>
</g>
<!-- &#45;9 -->
<g id="node9" class="node">
<title>&#45;9</title>
<polygon fill="#d3d3d3" stroke="#000000" points="108,-162.1249 84,-162.1249 84,-144.1249 108,-144.1249 108,-162.1249"/>
<text text-anchor="middle" x="96" y="-150.9249" font-family="Times,serif" font-size="9.00" fill="#000000">&#45;9</text>
</g>
<!-- &#45;9&#45;&gt;360 -->
<g id="edge33" class="edge">
<title>&#45;9&#45;&gt;360</title>
<path fill="none" stroke="#0000ff" stroke-width="1.2573" d="M108.2446,-147.2519C111.0703,-146.0733 114.0995,-144.9463 117,-144.1249 222.0471,-114.3742 258.6614,-148.7512 360,-108.1249 361.6282,-107.4721 363.2528,-106.7148 364.8558,-105.883"/>
<polygon fill="#0000ff" stroke="#0000ff" stroke-width="1.2573" points="366.9542,-108.7031 373.6744,-100.5122 363.3131,-102.7245 366.9542,-108.7031"/>
</g>
<!-- &#45;9&#45;&gt;361 -->
<g id="edge34" class="edge">
<title>&#45;9&#45;&gt;361</title>
<path fill="none" stroke="#0000ff" stroke-width=".6845" d="M108.2237,-147.1756C111.0505,-146.0009 114.0854,-144.8949 117,-144.1249 255.799,-107.4558 303.8236,-159.1786 438,-108.1249 439.6395,-107.5011 441.273,-106.7665 442.8828,-105.9521"/>
<polygon fill="#0000ff" stroke="#0000ff" stroke-width=".6845" points="444.9588,-108.7877 451.721,-100.6315 441.3485,-102.7905 444.9588,-108.7877"/>
</g>
<!-- &#45;9&#45;&gt;362 -->
<g id="edge35" class="edge">
<title>&#45;9&#45;&gt;362</title>
<path fill="none" stroke="#0000ff" stroke-width="1.1625" d="M108.2466,-147.2489C129.9128,-136.8533 175.5328,-114.9646 205.4569,-100.6068"/>
<polygon fill="#0000ff" stroke="#0000ff" stroke-width="1.1625" points="207.069,-103.7154 214.5708,-96.2339 204.0408,-97.4043 207.069,-103.7154"/>
</g>
<!-- &#45;9&#45;&gt;363 -->
<g id="edge36" class="edge">
<title>&#45;9&#45;&gt;363</title>
<path fill="none" stroke="#00ff00" stroke-width=".3767" d="M108.2883,-147.3969C111.1118,-146.2107 114.129,-145.0441 117,-144.1249 188.4841,-121.2381 213.3172,-138.3979 282,-108.1249 283.5651,-107.4351 285.1314,-106.657 286.6815,-105.8169"/>
<polygon fill="#00ff00" stroke="#00ff00" stroke-width=".3767" points="288.6003,-108.7454 295.2614,-100.5064 284.9163,-102.7933 288.6003,-108.7454"/>
</g>
<!-- &#45;10 -->
<g id="node10" class="node">
<title>&#45;10</title>
<polygon fill="#d3d3d3" stroke="#000000" points="155.5,-162.1249 126.5,-162.1249 126.5,-144.1249 155.5,-144.1249 155.5,-162.1249"/>
<text text-anchor="middle" x="141" y="-150.9249" font-family="Times,serif" font-size="9.00" fill="#000000">&#45;10</text>
</g>
<!-- &#45;10&#45;&gt;360 -->
<g id="edge37" class="edge">
<title>&#45;10&#45;&gt;360</title>
<path fill="none" stroke="#0000ff" stroke-width=".1355" d="M155.9523,-146.799C158.6034,-145.8144 161.3606,-144.8762 164,-144.1249 249.1844,-119.8769 278.3737,-142.4979 360,-108.1249 361.5763,-107.4611 363.1515,-106.7037 364.7085,-105.8795"/>
<polygon fill="#0000ff" stroke="#0000ff" stroke-width=".1355" points="366.6062,-108.8216 373.3087,-100.6163 362.9522,-102.8509 366.6062,-108.8216"/>
</g>
<!-- &#45;10&#45;&gt;361 -->
<g id="edge38" class="edge">
<title>&#45;10&#45;&gt;361</title>
<path fill="none" stroke="#00ff00" stroke-width=".2321" d="M155.9214,-146.685C158.576,-145.713 161.3423,-144.8086 164,-144.1249 282.9508,-113.5219 323.6239,-152.8902 438,-108.1249 439.6335,-107.4855 441.2623,-106.7388 442.8685,-105.915"/>
<polygon fill="#00ff00" stroke="#00ff00" stroke-width=".2321" points="444.9566,-108.7423 451.6963,-100.5675 441.3298,-102.7551 444.9566,-108.7423"/>
</g>
<!-- &#45;10&#45;&gt;362 -->
<g id="edge39" class="edge">
<title>&#45;10&#45;&gt;362</title>
<path fill="none" stroke="#00ff00" stroke-width=".124" d="M153.9313,-143.9182C167.9138,-133.9631 190.5675,-117.8343 208.2165,-105.2688"/>
<polygon fill="#00ff00" stroke="#00ff00" stroke-width=".124" points="210.3023,-108.0802 216.4186,-99.4291 206.2424,-102.3779 210.3023,-108.0802"/>
</g>
<!-- &#45;10&#45;&gt;363 -->
<g id="edge40" class="edge">
<title>&#45;10&#45;&gt;363</title>
<path fill="none" stroke="#0000ff" stroke-width=".1911" d="M155.5378,-147.2415C158.3321,-146.166 161.2459,-145.0823 164,-144.1249 215.7909,-126.1214 232.7668,-132.2602 282,-108.1249 283.5357,-107.372 285.0789,-106.5442 286.611,-105.6653"/>
<polygon fill="#0000ff" stroke="#0000ff" stroke-width=".1911" points="288.5792,-108.5614 295.1376,-100.2405 284.8217,-102.6554 288.5792,-108.5614"/>
</g>
<!-- &#45;11 -->
<g id="node11" class="node">
<title>&#45;11</title>
<polygon fill="#d3d3d3" stroke="#000000" points="202.5,-162.1249 173.5,-162.1249 173.5,-144.1249 202.5,-144.1249 202.5,-162.1249"/>
<text text-anchor="middle" x="188" y="-150.9249" font-family="Times,serif" font-size="9.00" fill="#000000">&#45;11</text>
</g>
<!-- &#45;11&#45;&gt;360 -->
<g id="edge41" class="edge">
<title>&#45;11&#45;&gt;360</title>
<path fill="none" stroke="#0000ff" stroke-width=".4197" d="M202.9891,-146.9219C205.6362,-145.9236 208.3824,-144.949 211,-144.1249 275.9828,-123.6648 297.9689,-136.2944 360,-108.1249 361.5573,-107.4177 363.1175,-106.6259 364.6628,-105.7751"/>
<polygon fill="#0000ff" stroke="#0000ff" stroke-width=".4197" points="366.5955,-108.6947 373.2286,-100.4332 362.8913,-102.7551 366.5955,-108.6947"/>
</g>
<!-- &#45;11&#45;&gt;361 -->
<g id="edge42" class="edge">
<title>&#45;11&#45;&gt;361</title>
<path fill="none" stroke="#00ff00" stroke-width=".2723" d="M202.9372,-146.7446C205.59,-145.766 208.3516,-144.844 211,-144.1249 309.5804,-117.3577 343.3808,-146.6188 438,-108.1249 439.6249,-107.4638 441.2468,-106.7 442.8478,-105.8632"/>
<polygon fill="#00ff00" stroke="#00ff00" stroke-width=".2723" points="444.9525,-108.6788 451.6606,-100.478 441.3026,-102.7057 444.9525,-108.6788"/>
</g>
<!-- &#45;11&#45;&gt;362 -->
<g id="edge43" class="edge">
<title>&#45;11&#45;&gt;362</title>
<path fill="none" stroke="#00ff00" stroke-width=".3155" d="M194.3961,-143.9182C199.9672,-135.8991 208.3212,-123.8742 215.9226,-112.9326"/>
<polygon fill="#00ff00" stroke="#00ff00" stroke-width=".3155" points="218.9587,-114.6968 221.7898,-104.4872 213.2099,-110.7029 218.9587,-114.6968"/>
</g>
<!-- &#45;11&#45;&gt;363 -->
<g id="edge44" class="edge">
<title>&#45;11&#45;&gt;363</title>
<path fill="none" stroke="#00ff00" stroke-width=".1724" d="M202.7242,-146.9997C221.5699,-138.9534 255.0088,-123.9751 282,-108.1249 283.4748,-107.2588 284.9698,-106.3415 286.4646,-105.393"/>
<polygon fill="#00ff00" stroke="#00ff00" stroke-width=".1724" points="288.5153,-108.2322 294.8807,-99.7628 284.623,-102.4141 288.5153,-108.2322"/>
</g>
<!-- &#45;12 -->
<g id="node12" class="node">
<title>&#45;12</title>
<polygon fill="#d3d3d3" stroke="#000000" points="249.5,-162.1249 220.5,-162.1249 220.5,-144.1249 249.5,-144.1249 249.5,-162.1249"/>
<text text-anchor="middle" x="235" y="-150.9249" font-family="Times,serif" font-size="9.00" fill="#000000">&#45;12</text>
</g>
<!-- &#45;12&#45;&gt;360 -->
<g id="edge45" class="edge">
<title>&#45;12&#45;&gt;360</title>
<path fill="none" stroke="#0000ff" stroke-width=".4798" d="M249.709,-147.5656C252.776,-146.4186 255.9909,-145.2253 259,-144.1249 303.7564,-127.7579 317.7068,-130.0861 360,-108.1249 361.5179,-107.3367 363.0469,-106.4809 364.5681,-105.5803"/>
<polygon fill="#0000ff" stroke="#0000ff" stroke-width=".4798" points="366.563,-108.4585 373.0624,-100.0914 362.7638,-102.5792 366.563,-108.4585"/>
</g>
<!-- &#45;12&#45;&gt;361 -->
<g id="edge46" class="edge">
<title>&#45;12&#45;&gt;361</title>
<path fill="none" stroke="#0000ff" stroke-width="1.0202" d="M249.5985,-147.2259C252.6734,-146.1035 255.9196,-145.0061 259,-144.1249 337.0191,-121.8067 363.4795,-140.2462 438,-108.1249 439.5706,-107.4479 441.1414,-106.68 442.6949,-105.8477"/>
<polygon fill="#0000ff" stroke="#0000ff" stroke-width="1.0202" points="444.6034,-108.7829 451.285,-100.5605 440.9342,-102.8216 444.6034,-108.7829"/>
</g>
<!-- &#45;12&#45;&gt;362 -->
<g id="edge47" class="edge">
<title>&#45;12&#45;&gt;362</title>
<path fill="none" stroke="#00ff00" stroke-width=".6573" d="M234.861,-143.9182C234.7604,-137.2572 234.618,-127.8323 234.478,-118.5602"/>
<polygon fill="#00ff00" stroke="#00ff00" stroke-width=".6573" points="237.9739,-118.258 234.3232,-108.3121 230.9747,-118.3638 237.9739,-118.258"/>
</g>
<!-- &#45;12&#45;&gt;363 -->
<g id="edge48" class="edge">
<title>&#45;12&#45;&gt;363</title>
<path fill="none" stroke="#00ff00" stroke-width=".2178" d="M245.7065,-143.9182C256.5532,-134.591 273.7021,-119.8445 287.8405,-107.6867"/>
<polygon fill="#00ff00" stroke="#00ff00" stroke-width=".2178" points="290.4465,-110.0619 295.7467,-100.8881 285.8825,-104.7543 290.4465,-110.0619"/>
</g>
<!-- &#45;13 -->
<g id="node13" class="node">
<title>&#45;13</title>
<polygon fill="#d3d3d3" stroke="#000000" points="296.5,-162.1249 267.5,-162.1249 267.5,-144.1249 296.5,-144.1249 296.5,-162.1249"/>
<text text-anchor="middle" x="282" y="-150.9249" font-family="Times,serif" font-size="9.00" fill="#000000">&#45;13</text>
</g>
<!-- &#45;13&#45;&gt;360 -->
<g id="edge49" class="edge">
<title>&#45;13&#45;&gt;360</title>
<path fill="none" stroke="#00ff00" stroke-width=".1465" d="M296.614,-145.2223C312.4679,-136.5277 338.4057,-121.9472 360,-108.1249 361.4405,-107.2028 362.9084,-106.2412 364.382,-105.2584"/>
<polygon fill="#00ff00" stroke="#00ff00" stroke-width=".1465" points="366.4704,-108.0702 372.7359,-99.5266 362.51,-102.2983 366.4704,-108.0702"/>
</g>
<!-- &#45;13&#45;&gt;361 -->
<g id="edge50" class="edge">
<title>&#45;13&#45;&gt;361</title>
<path fill="none" stroke="#0000ff" stroke-width=".5428" d="M296.6475,-147.3868C299.7189,-146.2528 302.9512,-145.11 306,-144.1249 363.864,-125.4291 383.0051,-134.0736 438,-108.1249 439.5468,-107.3951 441.0987,-106.5854 442.6376,-105.7206"/>
<polygon fill="#0000ff" stroke="#0000ff" stroke-width=".5428" points="444.5881,-108.6286 451.1844,-100.3376 440.8575,-102.7055 444.5881,-108.6286"/>
</g>
<!-- &#45;13&#45;&gt;362 -->
<g id="edge51" class="edge">
<title>&#45;13&#45;&gt;362</title>
<path fill="none" stroke="#0000ff" stroke-width=".5327" d="M275.3258,-143.9182C269.4139,-135.7631 260.4987,-123.4651 252.4604,-112.3768"/>
<polygon fill="#0000ff" stroke="#0000ff" stroke-width=".5327" points="255.2518,-110.2641 246.5487,-104.2219 249.5844,-114.3726 255.2518,-110.2641"/>
</g>
<!-- &#45;13&#45;&gt;363 -->
<g id="edge52" class="edge">
<title>&#45;13&#45;&gt;363</title>
<path fill="none" stroke="#00ff00" stroke-width=".4435" d="M286.1714,-143.9182C289.49,-136.5937 294.3227,-125.9273 298.9126,-115.7969"/>
<polygon fill="#00ff00" stroke="#00ff00" stroke-width=".4435" points="302.2425,-116.9282 303.1815,-106.3751 295.8664,-114.0393 302.2425,-116.9282"/>
</g>
<!-- &#45;14 -->
<g id="node14" class="node">
<title>&#45;14</title>
<polygon fill="#d3d3d3" stroke="#000000" points="343.5,-162.1249 314.5,-162.1249 314.5,-144.1249 343.5,-144.1249 343.5,-162.1249"/>
<text text-anchor="middle" x="329" y="-150.9249" font-family="Times,serif" font-size="9.00" fill="#000000">&#45;14</text>
</g>
<!-- &#45;14&#45;&gt;360 -->
<g id="edge53" class="edge">
<title>&#45;14&#45;&gt;360</title>
<path fill="none" stroke="#00ff00" stroke-width=".9421" d="M337.4818,-143.9182C345.4613,-135.2567 357.7462,-121.9219 368.4286,-110.3266"/>
<polygon fill="#00ff00" stroke="#00ff00" stroke-width=".9421" points="371.294,-112.3819 375.4955,-102.6558 366.1457,-107.639 371.294,-112.3819"/>
</g>
<!-- &#45;14&#45;&gt;361 -->
<g id="edge54" class="edge">
<title>&#45;14&#45;&gt;361</title>
<path fill="none" stroke="#00ff00" stroke-width=".5016" d="M343.6022,-147.5653C369.1743,-137.7515 420.9645,-117.5091 438,-108.1249 439.4981,-107.2997 441.0114,-106.4146 442.5205,-105.4913"/>
<polygon fill="#00ff00" stroke="#00ff00" stroke-width=".5016" points="444.5423,-108.3507 450.9788,-99.9351 440.6991,-102.5001 444.5423,-108.3507"/>
</g>
<!-- &#45;14&#45;&gt;362 -->
<g id="edge55" class="edge">
<title>&#45;14&#45;&gt;362</title>
<path fill="none" stroke="#0000ff" stroke-width=".435" d="M315.7907,-143.9182C301.4198,-133.902 278.0823,-117.6362 260.0068,-105.0379"/>
<polygon fill="#0000ff" stroke="#0000ff" stroke-width=".435" points="261.8236,-102.038 251.6184,-99.1914 257.821,-107.7808 261.8236,-102.038"/>
</g>
<!-- &#45;14&#45;&gt;363 -->
<g id="edge56" class="edge">
<title>&#45;14&#45;&gt;363</title>
<path fill="none" stroke="#0000ff" stroke-width=".2921" d="M326.6362,-143.9182C324.8486,-136.9557 322.2857,-126.9735 319.8027,-117.3024"/>
<polygon fill="#0000ff" stroke="#0000ff" stroke-width=".2921" points="323.1568,-116.2918 317.2799,-107.4764 316.3767,-118.0326 323.1568,-116.2918"/>
</g>
<!-- &#45;15 -->
<g id="node15" class="node">
<title>&#45;15</title>
<polygon fill="#d3d3d3" stroke="#000000" points="390.5,-162.1249 361.5,-162.1249 361.5,-144.1249 390.5,-144.1249 390.5,-162.1249"/>
<text text-anchor="middle" x="376" y="-150.9249" font-family="Times,serif" font-size="9.00" fill="#000000">&#45;15</text>
</g>
<!-- &#45;15&#45;&gt;360 -->
<g id="edge57" class="edge">
<title>&#45;15&#45;&gt;360</title>
<path fill="none" stroke="#00ff00" stroke-width=".3119" d="M377.9466,-143.9182C379.3922,-137.0812 381.4535,-127.3323 383.4636,-117.8256"/>
<polygon fill="#00ff00" stroke="#00ff00" stroke-width=".3119" points="386.9487,-118.2618 385.5931,-107.754 380.1001,-116.8137 386.9487,-118.2618"/>
</g>
<!-- &#45;15&#45;&gt;361 -->
<g id="edge58" class="edge">
<title>&#45;15&#45;&gt;361</title>
<path fill="none" stroke="#00ff00" stroke-width=".2092" d="M388.7922,-143.9182C402.4987,-134.0536 424.6278,-118.1271 442.0164,-105.6123"/>
<polygon fill="#00ff00" stroke="#00ff00" stroke-width=".2092" points="444.5357,-108.1114 450.6076,-99.4291 440.4466,-102.4299 444.5357,-108.1114"/>
</g>
<!-- &#45;15&#45;&gt;362 -->
<g id="edge59" class="edge">
<title>&#45;15&#45;&gt;362</title>
<path fill="none" stroke="#0000ff" stroke-width=".401" d="M361.3383,-146.2883C338.0639,-135.4356 292.2468,-114.0716 262.388,-100.1487"/>
<polygon fill="#0000ff" stroke="#0000ff" stroke-width=".401" points="263.8454,-96.9666 253.3032,-95.9126 260.8872,-103.3108 263.8454,-96.9666"/>
</g>
<!-- &#45;15&#45;&gt;363 -->
<g id="edge60" class="edge">
<title>&#45;15&#45;&gt;363</title>
<path fill="none" stroke="#0000ff" stroke-width=".4504" d="M367.1011,-143.9182C358.5922,-135.1152 345.4174,-121.4847 334.084,-109.7594"/>
<polygon fill="#0000ff" stroke="#0000ff" stroke-width=".4504" points="336.4363,-107.1569 326.9698,-102.3992 331.4031,-112.0219 336.4363,-107.1569"/>
</g>
<!-- &#45;16 -->
<g id="node16" class="node">
<title>&#45;16</title>
<polygon fill="#d3d3d3" stroke="#000000" points="437.5,-162.1249 408.5,-162.1249 408.5,-144.1249 437.5,-144.1249 437.5,-162.1249"/>
<text text-anchor="middle" x="423" y="-150.9249" font-family="Times,serif" font-size="9.00" fill="#000000">&#45;16</text>
</g>
<!-- &#45;16&#45;&gt;360 -->
<g id="edge61" class="edge">
<title>&#45;16&#45;&gt;360</title>
<path fill="none" stroke="#00ff00" stroke-width=".5905" d="M418.4115,-143.9182C414.6963,-136.4638 409.2559,-125.5478 404.1277,-115.2583"/>
<polygon fill="#00ff00" stroke="#00ff00" stroke-width=".5905" points="407.1575,-113.491 399.5644,-106.1022 400.8925,-116.6135 407.1575,-113.491"/>
</g>
<!-- &#45;16&#45;&gt;361 -->
<g id="edge62" class="edge">
<title>&#45;16&#45;&gt;361</title>
<path fill="none" stroke="#00ff00" stroke-width=".2334" d="M429.2571,-143.9182C434.707,-135.8991 442.8794,-123.8742 450.3156,-112.9326"/>
<polygon fill="#00ff00" stroke="#00ff00" stroke-width=".2334" points="453.329,-114.7253 456.0553,-104.4872 447.5395,-110.7906 453.329,-114.7253"/>
</g>
<!-- &#45;16&#45;&gt;362 -->
<g id="edge63" class="edge">
<title>&#45;16&#45;&gt;362</title>
<path fill="none" stroke="#00ff00" stroke-width=".1576" d="M408.4622,-147.2415C405.6679,-146.166 402.7541,-145.0823 400,-144.1249 348.2091,-126.1214 333.3905,-127.2413 282,-108.1249 275.7237,-105.7902 269.0946,-103.0475 262.8327,-100.3235"/>
<polygon fill="#00ff00" stroke="#00ff00" stroke-width=".1576" points="263.9571,-96.9928 253.3983,-96.1197 261.108,-103.3868 263.9571,-96.9928"/>
</g>
<!-- &#45;16&#45;&gt;363 -->
<g id="edge64" class="edge">
<title>&#45;16&#45;&gt;363</title>
<path fill="none" stroke="#00ff00" stroke-width=".6718" d="M408.4887,-144.4687C391.006,-134.04 361.2631,-116.2979 339.4104,-103.2624"/>
<polygon fill="#00ff00" stroke="#00ff00" stroke-width=".6718" points="340.9679,-100.1161 330.5867,-97.999 337.3818,-106.1278 340.9679,-100.1161"/>
</g>
<!-- 0 -->
<g id="node17" class="node">
<title>0</title>
<ellipse fill="#add8e6" stroke="#000000" cx="384" cy="-14.8492" rx="14.7" ry="14.7"/>
<text text-anchor="middle" x="384" y="-12.6492" font-family="Times,serif" font-size="9.00" fill="#000000">0</text>
</g>
<!-- 0&#45;&gt;0 -->
<g id="edge81" class="edge">
<title>0&#45;&gt;0</title>
<path fill="none" stroke="#00ff00" stroke-width=".1822" d="M394.7667,-25.5774C405.2887,-31.5034 416.8492,-27.9274 416.8492,-14.8492 416.8492,-5.858 411.3851,-1.358 404.5508,-1.3493"/>
<polygon fill="#00ff00" stroke="#00ff00" stroke-width=".1822" points="403.434,1.9722 394.7667,-4.1211 405.3421,-4.7628 403.434,1.9722"/>
</g>
<!-- 1 -->
<g id="node18" class="node">
<title>1</title>
<ellipse fill="#add8e6" stroke="#000000" cx="450" cy="-14.8492" rx="14.7" ry="14.7"/>
<text text-anchor="middle" x="450" y="-12.6492" font-family="Times,serif" font-size="9.00" fill="#000000">1</text>
</g>
<!-- 1&#45;&gt;1 -->
<g id="edge82" class="edge">
<title>1&#45;&gt;1</title>
<path fill="none" stroke="#0000ff" stroke-width=".6496" d="M460.7667,-25.5774C471.2887,-31.5034 482.8492,-27.9274 482.8492,-14.8492 482.8492,-5.858 477.3851,-1.358 470.5508,-1.3493"/>
<polygon fill="#0000ff" stroke="#0000ff" stroke-width=".6496" points="469.434,1.9722 460.7667,-4.1211 471.3421,-4.7628 469.434,1.9722"/>
</g>
<!-- 2 -->
<g id="node19" class="node">
<title>2</title>
<ellipse fill="#add8e6" stroke="#000000" cx="252" cy="-14.8492" rx="14.7" ry="14.7"/>
<text text-anchor="middle" x="252" y="-12.6492" font-family="Times,serif" font-size="9.00" fill="#000000">2</text>
</g>
<!-- 2&#45;&gt;2 -->
<g id="edge83" class="edge">
<title>2&#45;&gt;2</title>
<path fill="none" stroke="#0000ff" stroke-width="1.5281" d="M262.7667,-25.5774C273.2887,-31.5034 284.8492,-27.9274 284.8492,-14.8492 284.8492,-5.858 279.3851,-1.358 272.5508,-1.3493"/>
<polygon fill="#0000ff" stroke="#0000ff" stroke-width="1.5281" points="271.434,1.9722 262.7667,-4.1211 273.3421,-4.7628 271.434,1.9722"/>
</g>
<!-- 3 -->
<g id="node20" class="node">
<title>3</title>
<ellipse fill="#add8e6" stroke="#000000" cx="318" cy="-14.8492" rx="14.7" ry="14.7"/>
<text text-anchor="middle" x="318" y="-12.6492" font-family="Times,serif" font-size="9.00" fill="#000000">3</text>
</g>
<!-- 3&#45;&gt;3 -->
<g id="edge84" class="edge">
<title>3&#45;&gt;3</title>
<path fill="none" stroke="#00ff00" stroke-width=".5185" d="M328.7667,-25.5774C339.2887,-31.5034 350.8492,-27.9274 350.8492,-14.8492 350.8492,-5.858 345.3851,-1.358 338.5508,-1.3493"/>
<polygon fill="#00ff00" stroke="#00ff00" stroke-width=".5185" points="337.434,1.9722 328.7667,-4.1211 339.3421,-4.7628 337.434,1.9722"/>
</g>
<!-- 360&#45;&gt;0 -->
<g id="edge65" class="edge">
<title>360&#45;&gt;0</title>
<path fill="none" stroke="#0000ff" stroke-width=".8444" d="M388.2323,-65.6803C387.5614,-57.6235 386.7911,-48.3716 386.0931,-39.9882"/>
<polygon fill="#0000ff" stroke="#0000ff" stroke-width=".8444" points="389.5783,-39.6639 385.2605,-29.9888 382.6024,-40.2448 389.5783,-39.6639"/>
</g>
<!-- 360&#45;&gt;1 -->
<g id="edge66" class="edge">
<title>360&#45;&gt;1</title>
<path fill="none" stroke="#0000ff" stroke-width=".8469" d="M403.6149,-70.5596C412.6293,-59.7329 424.4909,-45.4867 433.9625,-34.1109"/>
<polygon fill="#0000ff" stroke="#0000ff" stroke-width=".8469" points="436.6532,-36.3493 440.362,-26.4248 431.2737,-31.8703 436.6532,-36.3493"/>
</g>
<!-- 360&#45;&gt;2 -->
<g id="edge67" class="edge">
<title>360&#45;&gt;2</title>
<path fill="none" stroke="#0000ff" stroke-width=".5012" d="M372.8925,-74.0405C368.7627,-71.1522 364.2985,-68.2042 360,-65.6985 331.8969,-49.3169 297.6554,-33.9078 275.3674,-24.4369"/>
<polygon fill="#0000ff" stroke="#0000ff" stroke-width=".5012" points="276.6085,-21.1621 266.0331,-20.5211 273.9006,-27.6171 276.6085,-21.1621"/>
</g>
<!-- 360&#45;&gt;3 -->
<g id="edge68" class="edge">
<title>360&#45;&gt;3</title>
<path fill="none" stroke="#00ff00" stroke-width=".6118" d="M374.7307,-71.6291C363.3531,-60.2417 347.7848,-44.6599 335.835,-32.6997"/>
<polygon fill="#00ff00" stroke="#00ff00" stroke-width=".6118" points="338.1291,-30.0439 328.5852,-25.4436 333.1772,-34.9916 338.1291,-30.0439"/>
</g>
<!-- 360&#45;&gt;360 -->
<g id="edge85" class="edge">
<title>360&#45;&gt;360</title>
<path fill="none" stroke="#0000ff" stroke-width=".5629" d="M408.1514,-98.5133C419.0014,-101.0914 429.2132,-97.2242 429.2132,-86.9117 429.2132,-79.983 424.6034,-75.9638 418.2875,-74.8541"/>
<polygon fill="#0000ff" stroke="#0000ff" stroke-width=".5629" points="417.984,-71.3641 408.1514,-75.3101 418.2987,-78.3571 417.984,-71.3641"/>
</g>
<!-- 361&#45;&gt;0 -->
<g id="edge69" class="edge">
<title>361&#45;&gt;0</title>
<path fill="none" stroke="#0000ff" stroke-width=".1465" d="M451.804,-73.0173C437.9351,-61.1194 417.9374,-43.9637 403.2526,-31.3658"/>
<polygon fill="#0000ff" stroke="#0000ff" stroke-width=".1465" points="405.1755,-28.404 395.3068,-24.5492 400.6177,-33.7168 405.1755,-28.404"/>
</g>
<!-- 361&#45;&gt;1 -->
<g id="edge70" class="edge">
<title>361&#45;&gt;1</title>
<path fill="none" stroke="#00ff00" stroke-width=".8624" d="M462.7937,-66.0682C460.7268,-57.7936 458.3332,-48.211 456.1794,-39.5881"/>
<polygon fill="#00ff00" stroke="#00ff00" stroke-width=".8624" points="459.5283,-38.5524 453.7091,-29.6987 452.7369,-40.2488 459.5283,-38.5524"/>
</g>
<!-- 361&#45;&gt;2 -->
<g id="edge71" class="edge">
<title>361&#45;&gt;2</title>
<path fill="none" stroke="#00ff00" stroke-width=".12" d="M451.2167,-73.4162C447.0736,-70.5536 442.5221,-67.7737 438,-65.6985 378.0421,-38.1839 357.1694,-48.7148 294,-29.6985 287.9273,-27.8704 281.4358,-25.6899 275.4167,-23.5703"/>
<polygon fill="#00ff00" stroke="#00ff00" stroke-width=".12" points="276.4849,-20.2349 265.8905,-20.1337 274.1094,-26.8195 276.4849,-20.2349"/>
</g>
<!-- 361&#45;&gt;3 -->
<g id="edge72" class="edge">
<title>361&#45;&gt;3</title>
<path fill="none" stroke="#00ff00" stroke-width=".1144" d="M450.9626,-73.9176C446.8299,-71.0343 442.3469,-68.1194 438,-65.6985 406.0011,-47.8775 366.4895,-32.2626 341.7603,-23.1892"/>
<polygon fill="#00ff00" stroke="#00ff00" stroke-width=".1144" points="342.7265,-19.817 332.1322,-19.7138 340.3498,-26.4012 342.7265,-19.817"/>
</g>
<!-- 361&#45;&gt;361 -->
<g id="edge86" class="edge">
<title>361&#45;&gt;361</title>
<path fill="none" stroke="#0000ff" stroke-width=".34" d="M486.1514,-98.5133C497.0014,-101.0914 507.2132,-97.2242 507.2132,-86.9117 507.2132,-79.983 502.6034,-75.9638 496.2875,-74.8541"/>
<polygon fill="#0000ff" stroke="#0000ff" stroke-width=".34" points="495.984,-71.3641 486.1514,-75.3101 496.2987,-78.3571 495.984,-71.3641"/>
</g>
<!-- 362&#45;&gt;0 -->
<g id="edge73" class="edge">
<title>362&#45;&gt;0</title>
<path fill="none" stroke="#0000ff" stroke-width=".3781" d="M253.5769,-78.188C286.418,-63.5289 350.0114,-35.0282 360,-29.6985 360.8321,-29.2545 361.6748,-28.7933 362.5218,-28.32"/>
<polygon fill="#0000ff" stroke="#0000ff" stroke-width=".3781" points="364.6525,-31.1259 371.473,-23.0184 361.0852,-25.103 364.6525,-31.1259"/>
</g>
<!-- 362&#45;&gt;1 -->
<g id="edge74" class="edge">
<title>362&#45;&gt;1</title>
<path fill="none" stroke="#00ff00" stroke-width=".2685" d="M253.315,-77.4705C261.9543,-73.4848 272.3483,-69.0104 282,-65.6985 344.3982,-44.2868 365.2257,-55.3594 426,-29.6985 426.8689,-29.3316 427.7429,-28.9359 428.6162,-28.5179"/>
<polygon fill="#00ff00" stroke="#00ff00" stroke-width=".2685" points="430.6502,-31.3917 437.6901,-23.474 427.2492,-25.2734 430.6502,-31.3917"/>
</g>
<!-- 362&#45;&gt;2 -->
<g id="edge75" class="edge">
<title>362&#45;&gt;2</title>
<path fill="none" stroke="#00ff00" stroke-width=".3574" d="M239.2063,-66.0682C241.2732,-57.7936 243.6668,-48.211 245.8206,-39.5881"/>
<polygon fill="#00ff00" stroke="#00ff00" stroke-width=".3574" points="249.2631,-40.2488 248.2909,-29.6987 242.4717,-38.5524 249.2631,-40.2488"/>
</g>
<!-- 362&#45;&gt;3 -->
<g id="edge76" class="edge">
<title>362&#45;&gt;3</title>
<path fill="none" stroke="#0000ff" stroke-width=".6579" d="M250.196,-73.0173C264.0649,-61.1194 284.0626,-43.9637 298.7474,-31.3658"/>
<polygon fill="#0000ff" stroke="#0000ff" stroke-width=".6579" points="301.3823,-33.7168 306.6932,-24.5492 296.8245,-28.404 301.3823,-33.7168"/>
</g>
<!-- 362&#45;&gt;362 -->
<g id="edge87" class="edge">
<title>362&#45;&gt;362</title>
<path fill="none" stroke="#0000ff" stroke-width=".7198" d="M252.1514,-98.5133C263.0014,-101.0914 273.2132,-97.2242 273.2132,-86.9117 273.2132,-79.983 268.6034,-75.9638 262.2875,-74.8541"/>
<polygon fill="#0000ff" stroke="#0000ff" stroke-width=".7198" points="261.984,-71.3641 252.1514,-75.3101 262.2987,-78.3571 261.984,-71.3641"/>
</g>
<!-- 363&#45;&gt;0 -->
<g id="edge77" class="edge">
<title>363&#45;&gt;0</title>
<path fill="none" stroke="#0000ff" stroke-width=".5735" d="M327.2693,-71.6291C338.6469,-60.2417 354.2152,-44.6599 366.165,-32.6997"/>
<polygon fill="#0000ff" stroke="#0000ff" stroke-width=".5735" points="368.8228,-34.9916 373.4148,-25.4436 363.8709,-30.0439 368.8228,-34.9916"/>
</g>
<!-- 363&#45;&gt;1 -->
<g id="edge78" class="edge">
<title>363&#45;&gt;1</title>
<path fill="none" stroke="#00ff00" stroke-width="1.2689" d="M331.2308,-77.9052C354.1136,-67.0412 393.3313,-47.9551 426,-29.6985 426.8233,-29.2384 427.6586,-28.7635 428.4992,-28.2786"/>
<polygon fill="#00ff00" stroke="#00ff00" stroke-width="1.2689" points="430.6484,-31.0708 437.421,-22.9233 427.0457,-25.069 430.6484,-31.0708"/>
</g>
<!-- 363&#45;&gt;2 -->
<g id="edge79" class="edge">
<title>363&#45;&gt;2</title>
<path fill="none" stroke="#0000ff" stroke-width=".2976" d="M298.3851,-70.5596C289.3707,-59.7329 277.5091,-45.4867 268.0375,-34.1109"/>
<polygon fill="#0000ff" stroke="#0000ff" stroke-width=".2976" points="270.7263,-31.8703 261.638,-26.4248 265.3468,-36.3493 270.7263,-31.8703"/>
</g>
<!-- 363&#45;&gt;3 -->
<g id="edge80" class="edge">
<title>363&#45;&gt;3</title>
<path fill="none" stroke="#0000ff" stroke-width=".372" d="M313.7677,-65.6803C314.4386,-57.6235 315.2089,-48.3716 315.9069,-39.9882"/>
<polygon fill="#0000ff" stroke="#0000ff" stroke-width=".372" points="319.3976,-40.2448 316.7395,-29.9888 312.4217,-39.6639 319.3976,-40.2448"/>
</g>
<!-- 363&#45;&gt;363 -->
<g id="edge88" class="edge">
<title>363&#45;&gt;363</title>
<path fill="none" stroke="#0000ff" stroke-width=".8435" d="M330.1514,-98.5133C341.0014,-101.0914 351.2132,-97.2242 351.2132,-86.9117 351.2132,-79.983 346.6034,-75.9638 340.2875,-74.8541"/>
<polygon fill="#0000ff" stroke="#0000ff" stroke-width=".8435" points="339.984,-71.3641 330.1514,-75.3101 340.2987,-78.3571 339.984,-71.3641"/>
</g>
</g>
</svg>
